<?xml version="1.0" encoding="UTF-8" standalone="no"?>
<!-- Created with Inkscape (http://www.inkscape.org/) -->

<svg
   version="1.1"
   id="svg1"
   width="192"
   height="192"
   viewBox="0 0 192 192"
   sodipodi:docname="corner-onlay.svg"
   inkscape:version="1.4 (e7c3feb100, 2024-10-09)"
   xmlns:inkscape="http://www.inkscape.org/namespaces/inkscape"
   xmlns:sodipodi="http://sodipodi.sourceforge.net/DTD/sodipodi-0.dtd"
   xmlns="http://www.w3.org/2000/svg"
   xmlns:svg="http://www.w3.org/2000/svg">
  <defs
     id="defs1" />
  <sodipodi:namedview
     id="namedview1"
     pagecolor="#ffffff"
     bordercolor="#666666"
     borderopacity="1.0"
     inkscape:showpageshadow="2"
     inkscape:pageopacity="0.0"
     inkscape:pagecheckerboard="0"
     inkscape:deskcolor="#d1d1d1"
     showgrid="false"
     inkscape:zoom="2.53125"
     inkscape:cx="14.617284"
     inkscape:cy="96.790123"
     inkscape:window-width="1792"
     inkscape:window-height="935"
     inkscape:window-x="0"
     inkscape:window-y="0"
     inkscape:window-maximized="0"
     inkscape:current-layer="layer2"
     inkscape:document-units="mm" />
  <g
     inkscape:groupmode="layer"
     id="layer2"
     inkscape:label="gray0"
     style="display:inline"
     inkscape:highlight-color="#0e0e0e"
     transform="translate(9.2841172e-4,0.07974436)">
    <path
       style="display:inline;fill:#0e0e0e;fill-opacity:1"
       d="m 20.8,0.50686668 c 4.502805,-0.9158658 7.889689,2.17393092 10.88,5.44000002 1.483,2.9155223 3.424089,5.6412973 4.32,8.8000003 1.762038,3.661034 2.762982,8.117961 6.72,10.56 2.61698,1.852145 5.854465,-0.993684 5.76,-3.84 0.617185,-4.408233 -1.083358,-10.214691 3.2,-12.8000003 2.908592,-1.2297503 5.334328,0.6838641 7.04,2.8800003 1.730454,1.818513 3.521452,5.016933 6.4,3.52 2.918916,-0.929353 3.455744,-4.425633 4.96,-6.5600003 1.163357,-2.6009543 3.025829,-5.1985952 5.76,-6.4 2.88897,-1.33619671 6.882392,-1.0244756 9.44,0.8 3.180946,2.1559428 4.515414,5.7591634 5.12,9.2800003 1.168983,0.546057 1.375156,-2.5563347 1.76,-3.6800003 1.569794,-1.9722447 3.584304,-3.7948322 6.08,-3.52 3.73625,0.5651538 5.66064,4.5446257 5.76,8.0000003 0.11815,3.225273 -0.57864,7.253758 2.08,9.12 3.1858,0.350417 4.32228,-4.246657 7.2,-4.64 1.854,-0.48266 3.95088,-0.204515 5.28,1.12 2.09394,-2.404947 1.80453,-5.797108 4,-8.16 1.62946,-3.1100604 4.75562,-5.9846765 7.84,-7.5200003 2.98632,-1.0643717 7.36502,-1.3764529 9.44,1.76 2.83979,2.7359103 3.16657,6.8443723 2.72,10.7200003 -0.34242,3.261894 -2.17995,6.193674 -4.96,8.16 -2.7375,1.863437 -7.02277,3.582828 -6.72,7.68 1.38279,3.545026 6.33398,3.627555 9.44,2.4 3.51524,-1.20313 6.01728,-4.852324 9.92,-5.12 3.26367,-0.864087 3.01147,4.722185 6.24,3.36 4.24272,-2.04565 7.56007,-6.325351 11.36,-9.44 1.69452,-2.311914 4.3922,-3.806727 6.4,-6.08 2.41155,-1.282457 5.43139,-3.859259 8.32,-1.92 3.32995,1.539034 2.24696,6.22883 -0.16,8.16 -1.2187,1.951004 -3.61103,3.022698 -5.28,4.64 -3.00978,1.481721 -5.90242,3.246233 -9.28,3.84 -2.65721,1.065338 -5.85116,1.924438 -7.52,4.64 0.36584,2.515594 3.45319,2.054338 5.28,1.76 3.36644,-0.313602 6.50467,-1.178156 9.76,-1.76 4.09988,-0.668256 9.13156,-0.936069 12.96,0.48 2.50171,0.977692 4.78111,4.450246 2.08,6.56 -3.14283,2.119857 -7.68624,2.10081 -11.36,1.12 -2.86586,-0.285709 -5.90397,-1.17771 -8.64,0 -1.72417,0.2648 -2.92087,1.803025 -4.64,2.08 -1.6921,1.880595 -4.44677,3.157384 -6.88,4 -2.08337,0.372185 -4.16796,0.185497 -6.08,-0.64 -1.39655,-1.055747 -3.13778,-1.279373 -4.64,-2.08 -3.09858,-1.390224 -7.41057,-1.67405 -10.4,0.16 -2.05099,1.217864 -3.39227,3.993559 -2.72,6.24 1.13813,2.652451 4.07348,3.495709 6.72,3.84 2.29396,0.327641 4.45659,0.972343 6.56,1.76 4.73642,1.038066 10.79634,-1.119065 14.24,3.04 1.29202,2.552388 -0.77727,5.507512 -3.68,4.96 -3.88201,0.20273 -6.81507,-1.885521 -10.4,-2.4 -4.14645,-0.759614 -7.6049,1.497996 -11.68,1.44 -1.5636,1.630685 -3.51686,-0.554233 -5.28,-0.48 -3.92929,-1.49645 -6.8531,-5.420378 -10.4,-7.84 -1.64592,-1.009557 -4.5205,-1.482606 -4.96,1.12 0.52403,3.0166 -1.79066,5.696993 -4.96,4.96 -4.15357,2.119633 -3.88825,8.70808 0,10.88 2.49463,1.583589 6.07543,1.257436 8,3.52 2.39472,2.755744 1.76687,7.353616 -1.28,9.6 -2.17818,1.539341 -5.0332,1.431191 -7.36,0.32 -3.10664,-1.359123 -4.8268,-5.227102 -8,-6.72 -2.12048,-0.781941 -3.728368,1.120608 -2.08,2.72 1.59635,1.978928 3.2764,4.853207 1.6,7.36 -1.01486,1.254952 -2.23637,3.53571 -0.32,4.8 1.42101,1.919097 3.90928,3.16997 5.76,4.799993 1.97267,1.69032 4.04073,4.30737 1.44,6.24 -4.14151,0.69888 -5.57854,-3.62349 -8.16,-5.92 -1.505436,-2.265516 -4.13468,-4.604646 -6.72,-4.479993 -3.113304,1.478637 -0.892112,5.240753 1.12,6.879993 3.038761,3.03293 5.91919,6.13145 7.52,9.76 0.93463,3.39364 0.39407,8.26955 -3.52,8.96 -3.263987,0.53248 -6.463529,-2.19218 -7.68,-5.12 -2.120947,-2.82164 -2.705513,-6.74013 -5.92,-8.8 -1.743184,-1.36327 -4.363327,0.0288 -4.48,2.24 -1.231556,4.29653 3.905267,6.85595 2.56,11.2 -0.695874,2.44058 -3.801627,1.71034 -4.48,-0.32 -1.0849,-2.60733 -0.0097,-7.00976 -3.52,-8 -2.658159,-1.45026 -3.43021,-4.26107 -5.12,-6.4 -0.958695,-2.43037 -3.568411,-4.48498 -6.4,-3.84 -4.287361,1.61945 -3.855889,7.59554 -2.4,11.04 1.271701,3.5105 2.845437,6.89589 3.36,10.72 0.367917,3.38813 0.455208,6.89249 2.08,9.76 0.92108,3.31743 3.284641,6.03736 4,9.44 0.992821,2.76383 1.775693,7.54795 -1.28,9.28 -3.269106,0.55528 -4.489151,-3.19898 -5.12,-5.44 -0.699742,-3.05565 -0.633364,-6.42863 -1.44,-9.44 -0.485676,-3.38575 -2.22988,-6.2502 -5.12,-8.64 -1.350097,-2.17214 -1.403023,-4.88159 -2.4,-7.2 -0.87294,-2.16012 -3.014122,-0.72189 -3.52,0.96 -1.921615,3.1707 -1.714769,7.78228 -0.8,11.36 1.155162,3.7538 2.688863,7.35081 4,11.04 1.254391,3.4659 1.429501,7.37886 1.44,11.36 -0.425108,2.03406 -0.884315,4.44655 -2.72,5.6 -2.069348,2.41037 -5.287287,0.0623 -6.08,-2.24 -1.461155,-2.93912 -0.448105,-6.41828 0.16,-9.44 0.691843,-3.57986 1.094715,-8.05903 0.16,-11.68 -0.645737,-1.96521 -1.658678,-5.53504 -4.32,-5.28 -3.205038,1.88699 -3.698837,5.71986 -4,9.12 -0.407802,2.76892 0.465512,5.5725 0.64,8.32 0.34291,3.5302 1.199802,7.19634 0.64,10.88 -0.451123,3.45497 -2.382998,6.29659 -3.2,9.6 -1.126836,3.79456 0.159114,8.58852 -1.12,12.32 -0.549574,2.32894 -1.430913,5.34858 -4,6.24 -1.438834,-0.86268 -3.410082,-1.22756 -3.36,-3.36 -1.355451,-3.20327 -0.261527,-7.03135 0.32,-10.24 1.499385,-3.44883 0.957181,-8.08734 0.8,-12 -1.448123,-2.41933 -5.689286,-2.23414 -5.92,-5.6 -0.850788,-3.0914 0.256885,-6.31702 1.12,-9.12 1.607735,-3.38425 2.781546,-6.94823 3.84,-10.56 0.363439,-2.42467 1.362827,-6.07649 -0.48,-8.16 -2.812902,-0.96085 -3.954305,2.68174 -4.32,4.64 -0.795678,3.64519 -1.328038,7.39945 -3.68,10.4 -1.059976,2.39321 -3.09477,4.26477 -5.76,4.8 -4.197868,0.91698 -8.0828562,-2.90932 -8,-7.04 -0.4114602,-5.37757 4.653534,-8.64906 8.32,-11.84 1.316636,-1.5924 0.894224,-3.58453 -0.32,-5.12 -1.010432,-3.00248 1.211854,-5.8777 3.84,-7.04 2.469908,-1.12339 5.38251,-2.92879 6.08,-5.76 0.811814,-2.07324 1.432347,-4.76516 -0.48,-6.56 -2.607861,0.14102 -5.971281,0.37039 -6.72,-2.56 -0.203234,-1.69118 -0.60336,-3.61815 -0.32,-5.12 -1.017856,-2.674144 -3.737884,-0.0317 -5.6,-0.16 -2.9142381,0.50889 -5.5259419,-2.709759 -4.8,-5.759993 0.2198452,-4.086319 2.905723,-7.151173 5.92,-10.08 1.891911,-1.038095 3.135413,-2.280322 4.96,-3.36 2.581274,-1.306306 0.331245,-1.244091 -1.44,-0.8 -2.602521,0.577987 -5.139515,-0.878554 -5.12,-3.52 -0.284366,-3.221028 2.824584,-5.589171 4.64,-8.16 1.359892,-2.702963 0.782997,-6.603492 -2.24,-8 -3.200794,-0.959002 -6.6124171,-2.52633 -8.32,-5.76 -1.5158746,-2.576381 -1.9135705,-6.663179 -0.48,-9.44 1.5073822,-3.763516 5.469945,-5.938612 9.6,-5.44 4.036384,0.637746 8.410134,0.434047 11.2,-2.88 3.171426,-3.323087 2.673899,-9.140985 -1.12,-12 -2.631658,-2.968129 -5.766465,-4.344133 -8.48,-7.52 -2.833383,-2.738659 -4.177317,-6.094268 -4,-10.0800003 0.843202,-2.6768015 2.544975,-5.9854202 5.6,-6.8800001 0.624545,-0.57576551 1.664953,-0.49498651 2.4,-0.79999992 z M 33.44,188.50686 c 1.497347,-2.24906 1.985442,-4.91616 2.24,-7.68 0.472587,-4.06555 -0.394479,-8.68601 1.12,-12.32 0.696081,-2.83621 1.302371,-5.94115 0.64,-8.96 -0.840017,-4.2646 -1.129157,-8.75738 -0.96,-13.44 0.742268,-2.21426 1.154801,-5.71597 0.91,-7.69 0.67355,-2.14786 1.488478,-5.42207 1.97,-7.67 1.364412,-2.72319 5.08056,-4.16219 7.2,-1.44 0.874378,-0.85722 -0.418799,-3.50043 0.48,-4.96 0.321744,-2.78449 2.23973,-4.68764 4.64,-6.24 1.912688,-1.60627 5.172356,-0.17529 5.76,2.24 1.06942,1.75616 0.706583,4.86962 3.2,5.44 2.244197,-1.32416 0.708655,-4.75206 0.32,-6.72 -1.481628,-2.72642 -2.033585,-5.83792 -2.56,-8.96 -0.401907,-2.79488 0.493074,-5.60987 1.6,-8 2.246701,-2.871704 6.45448,-3.836692 9.28,-1.6 2.832702,1.21287 3.115632,5.2304 6.08,6.08 2.125786,-0.90832 1.785094,-4.40795 4.48,-4.8 2.465889,-1.24032 5.622565,1.93612 7.52,-1.12 0.240212,-2.987858 -1.566423,-5.900849 0,-8.639993 0.865541,-2.8306 4.106649,-3.460389 6.72,-3.52 2.741882,-0.620027 2.506853,-3.925341 1.28,-5.76 -1.021804,-2.387828 -1.447975,-6.775774 1.6,-8 1.880679,-1.239257 4.4586,-0.808189 5.92,1.12 2.00905,-0.02613 2.00869,-2.343483 0.8,-3.36 -0.29778,-2.81564 -1.76483,-5.492829 -1.12,-8.48 0.34513,-3.012798 3.11596,-5.596835 6.4,-5.12 2.2386,-0.628861 3.57323,-2.727909 4.16,-4.8 2.0065,-2.860158 5.46501,-3.399294 8.48,-2.4 2.53587,1.215757 5.04225,3.051278 6.88,5.28 1.08583,0.375308 2.83955,2.571608 3.52,1.6 -2.53934,-1.962939 -3.10296,-4.744247 -3.68,-7.52 0.78486,-2.432151 1.16865,-5.030433 3.36,-6.88 2.91423,-2.227427 6.00394,-4.031208 9.92,-3.84 1.7683,-0.762706 3.91848,0.205341 5.76,0.32 3.29838,0.935822 6.15708,2.933122 9.6,3.52 1.74401,0.117928 5.35864,-0.831968 4.16,-2.88 -1.71021,-1.222773 -3.23178,-1.539757 -4.64,-3.36 -1.19227,-1.361088 1.20398,-3.571715 0.16,-4.32 -1.10342,1.056208 -4.20729,2.663374 -4.64,0.48 1.96849,-1.94702 -1.23168,-4.963916 -3.36,-3.36 -2.63506,0.389422 -3.80228,3.026322 -6.24,3.68 -1.94908,1.160257 -4.30639,1.334958 -6.56,1.76 -3.57052,1.494832 -8.99349,0.719346 -10.56,-3.2 -1.66337,-2.540779 -1.3853,-6.259275 0.8,-8.48 1.5824,-2.544516 5.3192,-3.233838 7.84,-4.96 3.11101,-2.211473 5.46414,-5.287919 4.96,-9.28 1.5771,-3.2087067 -2.38202,-6.5408381 -5.6,-5.7600003 -3.53177,0.5355664 -6.2682,3.322204 -8.44,5.9600003 -1.04776,1.223936 -2.33151,3.835402 -2.27,4.59 -1.27787,1.712416 -1.58408,4.567882 -3.69,5.77 -1.47303,0.727671 -1.59448,-1.726738 -3.52,-1.6 -4.35592,-0.608057 -5.64597,6.563719 -10.24,4.48 -3.11764,-1.965821 -2.80109,-6.398933 -3.04,-9.76 0.71027,-3.457066 -2.936243,-8.4445142 -6.56,-5.9200003 -3.003954,2.0618983 -2.669655,5.7878333 -3.72,8.7600003 -3.094803,1.935814 -2.968519,-3.028491 -3.44,-4.8 C 87.933615,6.9652693 82.862774,1.9382766 77.6,3.8668667 72.679764,5.2097895 71.540448,10.894069 69.12,14.586867 c -1.968424,2.78776 -6.293753,4.430997 -8.84,1.48 -2.768606,-1.582707 -3.927745,-6.9633583 -8,-5.2 -2.618881,2.271834 -2.049064,6.348643 -1.72,9.48 -0.107026,3.094216 -1.447884,6.935068 -4.96,7.52 -5.787006,0.24939 -9.017378,-5.838329 -10.56,-10.56 C 32.573956,12.004824 30.589332,5.5432935 24.76,2.9468667 19.909672,1.0335775 13.967387,5.0997556 14.72,10.426867 c 0.737807,5.451823 6.087923,8.506313 9.8,11.96 4.367871,3.009585 7.458122,8.919442 4.92,13.96 -1.628057,4.765321 -6.922711,6.841956 -11.68,6.24 -3.722203,-0.304446 -8.2436763,-0.160326 -10.04,3.72 -2.4618713,4.139006 -0.2755691,9.669861 3.96,11.64 3.668632,0.936864 8.022065,3.714468 7.52,8.16 0.50733,3.699622 -2.434617,6.391619 -4.48,8.96 -1.859049,2.038728 0.216465,5.201382 2.88,3.84 2.154099,-0.383916 5.285723,-2.917451 6.68,0.04 -0.167192,3.31873 -4.399687,3.979319 -6.56,5.84 -3.764352,2.255565 -7.257971,5.974291 -7.8,10.44 -0.8611736,2.700405 2.155009,4.807623 4.36,3.08 2.736018,-1.797615 6.451908,0.700553 5.88,3.959993 -0.217385,2.21059 0.32829,5.4782 3.36,4.64 4.073505,-0.95146 5.758885,4.16779 4.64,7.2 -0.713161,4.84943 -5.291008,7.76061 -9.28,9.92 -2.776603,1.78203 -0.380285,4.78564 0,7.04 -0.686442,5.89833 -9.5192631,7.2916 -8.96,13.76 -0.6498352,4.06372 4.630653,7.01717 7.68,4.16 4.779203,-4.11205 4.628046,-10.76449 7.04,-16 0.863971,-3.27976 5.678872,-4.15167 7.32,-0.92 1.54062,4.26471 0.291332,8.93398 -0.96,13.04 -1.789597,3.86479 -4.095988,8.19673 -4.07,12.19 -0.395332,0.51234 -0.510306,2.81202 0.91,3.53 1.280519,1.72181 3.177495,-2.4892 4.96,-0.8 0.803419,0.56546 1.495357,1.37214 1.12,2.08 0.649147,1.76018 -1.343401,3.38383 -0.64,5.44 0.383473,3.94034 -0.4772,7.59962 -1.6,11.2 -0.462664,2.0898 -1.066092,5.53335 -0.28,7 -0.23152,0.95108 0.33319,3.14891 2.04,2.76 z m 19.2,-26.24 c 1.67817,-0.14254 1.392762,-2.64485 1.43,-2.87 1.464723,-2.24864 0.257072,-5.64368 0.01,-8.17 -0.564215,-1.39541 -0.736078,-4.54041 -2.88,-4.16 -0.626693,0.91152 -1.147342,3.19764 -1.04,3.76 -0.658796,3.03629 -1.746867,7.06653 -0.08,10.16 0.642882,0.8538 1.542622,1.18471 2.56,1.28 z m 16.96,-10.24 c 1.201465,-2.51228 0.251448,-5.6527 -1.28,-7.68 -1.93677,-1.76905 -2.391692,0.99754 -2.08,2.72 0.529706,1.68487 0.879532,5.0227 3.36,4.96 z m 26.88,-34.88 c 2.967226,-1.24484 1.982164,-5.50947 -0.32,-7.04 -1.180002,-2.25178 -5.009014,-1.84507 -4.32,1.12 0.07809,2.66456 2.120188,5.28674 4.64,5.92 z M 112.8,84.826867 c 2.06623,-0.345747 2.73164,-2.901948 0.96,-4.16 -2.33804,-1.771672 -4.99653,-2.769714 -7.36,-4.48 -1.40945,2.4313 0.73691,4.856939 2.24,6.72 1.34808,0.687355 2.49244,1.997164 4.16,1.92 z m 47.68,-19.52 c 2.28689,-1.740702 -0.77668,-3.9697 -2.56,-3.84 -2.19236,-1.398728 -2.48605,1.027924 -0.8,2.08 0.88282,1.091547 1.64174,2.105131 3.36,1.76 z m 25.28,-23.68 c 2.8276,-0.496646 1.65238,-3.891278 -0.68,-4.12 -2.1933,0.201486 -4.46464,-0.455607 -6.48,-0.16 -0.71331,1.401845 -4.01253,1.024599 -4.42,1.8 -0.96801,-0.103069 -4.59032,0.441259 -3.46,1.2 3.08841,0.589413 6.34957,0.761738 9.6,0.96 1.88007,0.788524 3.26787,0.04052 5.44,0.32 z m -23.68,-10.56 c 3.4537,-1.653384 7.18152,-2.645008 10.56,-4.48 2.91323,-1.626302 5.90765,-3.849202 8,-6.72 1.77816,-2.252311 -1.65306,-4.693416 -3.56,-2.92 -2.38197,1.3661 -4.83022,3.732589 -6.44,5.32 -2.23451,1.292162 -4.41893,4.47695 -6.8,6.08 -0.3691,0.814481 -4.06703,2.43745 -1.76,2.72 z"
       id="path3" />
    <path
       style="display:inline;fill:#0e0e0e;fill-opacity:1"
       d="m 136.96,72.56482 c 2.61906,-0.843497 7.11354,0.92357 5.44,4.16 -2.23627,2.215033 -6.32228,-0.211662 -6.72,-2.88 -0.0612,-0.63766 0.86244,-1.093757 1.28,-1.28 z m 3.68,4 c 2.52203,-1.217946 -1.34952,-4.253021 -2.72,-2.72 -1.9376,0.716491 1.51737,3.444212 2.72,2.72 z"
       id="path28" />
    <path
       style="display:inline;fill:#0e0e0e;fill-opacity:1"
       d="m 114.24,67.76482 c 3.10815,-1.609014 4.9369,5.224118 1.12,4.64 -2.42087,0.538474 -3.5795,-3.977513 -1.12,-4.64 z m 1.76,3.68 c 2.01389,-1.561188 -1.45694,-4.382841 -2.08,-1.76 -0.0191,1.184014 0.74072,2.116235 2.08,1.76 z"
       id="path22" />
    <path
       style="display:inline;fill:#0e0e0e;fill-opacity:1"
       d="m 120.64,64.56482 c 1.68492,-0.632452 3.46048,0.923607 4.32,2.08 1.68897,1.93609 -0.89086,4.633952 -2.88,3.52 -2.36111,-0.511043 -4.67978,-4.235197 -1.44,-5.6 z m 2.72,4.96 c 2.46348,-1.445129 0.2791,-3.9219 -1.6,-4.16 -2.27876,-0.0029 -1.91071,2.910453 -0.16,3.36 0.46778,0.644437 1.15301,0.483716 1.76,0.8 z"
       id="path20" />
    <path
       style="display:inline;fill:#0e0e0e;fill-opacity:1"
       d="m 24.32,168.56481 c 2.612313,-0.70747 1.274731,3.47194 1.6,5.12 0.758484,2.63955 0.119483,5.72785 -1.44,7.84 -1.369392,1.41833 -3.998794,1.08453 -4.32,-1.12 -0.39803,-3.94461 1.626219,-6.88587 3.04,-10.08 0.657818,-0.46421 0.564538,-1.25503 1.12,-1.76 z m -2.04,12.6 c 3.814577,-1.28457 2.807511,-6.17527 3,-9.4 0.452753,-2.42432 -1.177315,-2.6657 -1.64,-0.36 -1.224275,2.78339 -4.235634,7.16938 -1.36,9.76 z"
       id="path49" />
    <path
       style="display:inline;fill:#0e0e0e;fill-opacity:1"
       d="m 88,126.64481 c 2.098107,-0.8109 3.44329,1.51071 5.12,2.24 1.133363,2.25138 3.757428,4.74712 2.08,7.52 -2.203158,2.47277 -6.231496,0.1384 -6.72,-2.56 -1.465819,-1.79357 -2.828932,-4.45017 -1.6,-6.72 0.430712,0.008 0.731097,-0.35994 1.12,-0.48 z m 4.96,9.12 c 2.038454,-1.28715 -0.196035,-3.86169 -1.12,-5.28 -0.742937,-1.20336 -2.27718,-2.71644 -3.52,-2.88 -1.336333,1.19591 0.03824,3.44224 0.96,4.8 0.214753,1.64746 1.762913,3.65661 3.68,3.36 z"
       id="path41" />
    <path
       style="display:inline;fill:#0e0e0e;fill-opacity:1"
       d="m 64,112.56481 c 2.40258,-0.87743 4.54155,2.19291 3.84,4.48 -0.455114,2.90333 -4.431237,0.70509 -4.32,-1.44 -0.375833,-0.91756 -0.227632,-2.3618 0.48,-3.04 z m 2.72,4.96 c 1.31203,-1.50866 -0.276213,-4.99666 -2.4,-4.32 -0.889629,1.72588 0.04717,4.63746 2.4,4.32 z"
       id="path38" />
    <path
       style="display:inline;fill:#0e0e0e;fill-opacity:1"
       d="m 12.16,106.48481 c 2.387236,-0.74755 3.223802,2.86856 2.24,4.48 -0.380287,2.2687 -4.108853,3.92534 -5.12,1.28 -1.1918949,-2.28071 0.987106,-4.64095 2.88,-5.76 z m -0.48,5.92 c 2.193856,-0.55419 3.563628,-5.05876 0.48,-4.96 -2.047546,0.54994 -3.596821,5.03459 -0.48,4.96 z"
       id="path34" />
    <path
       style="display:inline;fill:#0e0e0e;fill-opacity:1"
       d="m 2.56,68.08482 c 3.3913417,-1.482698 5.4106895,3.820281 2.4,5.6 -2.2073999,2.144611 -5.93811658,-1.15807 -4.32,-3.68 0.14159602,-0.765238 1.2754206,-1.642777 1.92,-1.92 z m 1.12,4.96 c 2.6648393,-0.573824 1.4917311,-5.631769 -1.24,-3.8 -1.46666878,1.046982 -1.1814566,4.487319 1.24,3.8 z"
       id="path23" />
  </g>
  <g
     inkscape:groupmode="layer"
     id="layer3"
     inkscape:label="gray1"
     style="display:inline"
     inkscape:highlight-color="#3c3c3c"
     transform="translate(0,0.45472276)">
    <path
       style="fill:#3c3c3c;fill-opacity:1"
       d="m 51.2,146.76687 c 2.143922,-0.38041 2.315785,2.76459 2.88,4.16 0.276404,2.55866 1.452696,6.0964 -0.06,8.3 -0.65345,-0.15448 -3.273475,0.0216 -3.42,-1.94 -0.0809,-2.12514 0.104214,-5.35515 -0.45,-6.73 -0.104208,-1.31947 0.493521,-2.59843 1.05,-3.79 z"
       id="path46" />
    <path
       style="fill:#3c3c3c;fill-opacity:1"
       d="m 66.56,143.56687 c 2.315093,-0.31627 3.014286,2.72548 3.52,4.48 0.524089,1.89534 -0.447005,5.31015 -2.4,2.72 -1.10954,-2.04873 -2.037786,-4.74578 -1.12,-7.2 z"
       id="path45" />
    <path
       style="fill:#3c3c3c;fill-opacity:1"
       d="m 37.12,138.44687 c 0.61811,-0.95853 0.339282,2.92521 0.16,3.68 -0.901452,3.51355 -1.022793,7.69657 -0.64,11.52 0.304829,3.38838 1.210524,6.52786 1.12,10.08 -0.50241,2.35948 -1.039913,4.70442 -1.6,7.04 -0.761112,4.19062 0.148249,9.07317 -0.96,13.12 -0.621492,1.40787 -0.612487,3.57712 -2.08,4.32 -1.834501,0.31037 -2.608603,-4.09551 -0.6,-2.28 2.798481,-0.30715 0.514372,-3.38174 0.44,-4.92 0.487163,-4.30809 1.613049,-8.47177 2.72,-12.64 0.574937,-2.35083 -0.03444,-6.38915 -1.56,-7.32 -0.597199,-0.52307 -1.808162,-2.61506 -3.24,-1.32 -1.254068,0.66626 -2.813165,2.2379 -3.68,0.16 -1.253421,-0.89445 -0.154913,-4.43308 0.32,-1.92 0.178964,1.79866 3.455188,1.57549 3.32,0.2 -2.409501,-1.91266 -0.403817,-5.53751 0.16,-7.92 1.761902,-3.91407 4.349574,-7.49862 5.6,-11.36 0.22516,-0.0803 0.347188,-0.29267 0.52,-0.44 z m -0.64,0.44 c 0,0.49178 0,0.0479 0,0 z m -0.87,2.25 c -0.437929,0.14598 0.29294,-0.0976 0,0 z"
       id="path44" />
    <path
       style="fill:#3c3c3c;fill-opacity:1"
       d="m 88.32,126.92687 c 1.446734,0.19509 2.869677,1.93415 3.84,3.2 0.7035,1.37928 2.805375,3.81049 0.8,4.96 -3.265236,0.17793 -3.595014,-3.59486 -4.96,-5.6 -0.273257,-1.14469 -0.547654,-1.80914 0.32,-2.56 z"
       id="path42" />
    <path
       style="fill:#3c3c3c;fill-opacity:1"
       d="m 64.32,112.52687 c 2.340913,-1.02328 4.372737,4.47463 1.44,4.32 -1.671821,-0.63751 -2.177188,-2.81507 -1.44,-4.32 z"
       id="path39" />
    <path
       style="fill:#3c3c3c;fill-opacity:1"
       d="m 42.24,108.68687 c 3.559184,0.22767 1.570586,5.14234 2.52,7.4 0.293421,2.14798 2.250109,3.87829 4.2,3.8 -1.915397,2.42661 -2.742104,5.82297 -1.92,8.96 -1.222044,-0.10164 -2.652321,-1.87566 -4.16,-1.28 -1.728604,0.19028 -3.135045,2.43699 -3.88,3.24 -0.745034,-2.93113 -3.710041,-5.58195 -2.04,-8.84 1.258652,-2.17755 2.228591,-4.52798 1.76,-7.2 0.02229,-2.3917 0.929495,-5.35348 3.52,-6.08 z m -1.76,15.2 c 2.64933,-0.53943 0.346032,-5.4999 -1.4,-2.68 -0.630335,1.22597 -0.01493,2.44099 1.4,2.68 z"
       id="path37" />
    <path
       style="fill:#3c3c3c;fill-opacity:1"
       d="m 93.44,108.36687 c 2.037145,-0.0847 4.166556,2.63512 4.8,4.48 0.787246,2.23772 -1.34577,5.10456 -3.36,3.36 -2.067502,-1.55432 -4.098114,-4.68109 -2.56,-7.36 0.234985,-0.5747 0.831146,-0.0863 1.12,-0.48 z"
       id="path36" />
    <path
       style="fill:#3c3c3c;fill-opacity:1"
       d="m 106.24,76.046867 c 1.60491,0.208542 3.06692,2.132518 4.8,2.56 1.79672,0.84879 5.28785,3.057786 3.04,5.28 -2.21931,1.612919 -4.47295,-0.648639 -6.24,-2.08 -0.90681,-1.736766 -2.70893,-3.605958 -1.6,-5.76 z"
       id="path30" />
    <path
       style="fill:#3c3c3c;fill-opacity:1"
       d="m 138.24,72.846867 c 1.31951,-0.34804 4.00157,0.851938 3.04,2.72 -1.46699,1.142734 -4.23502,-0.545423 -3.84,-2.24 0.399,0.172337 0.53896,-0.313136 0.8,-0.48 z"
       id="path29" />
    <path
       style="fill:#3c3c3c;fill-opacity:1"
       d="m 114.56,68.046867 c 2.61062,-1.16726 2.48065,4.377877 -0.16,2.4 -0.48717,-0.721737 -0.86313,-1.794643 0.16,-2.4 z"
       id="path25" />
    <path
       style="fill:#3c3c3c;fill-opacity:1"
       d="m 120.96,64.846867 c 1.84294,-0.649891 5.17328,2.166714 2.56,3.84 -1.44367,0.340791 -5.1208,-2.380001 -2.56,-3.84 z"
       id="path21" />
    <path
       style="fill:#3c3c3c;fill-opacity:1"
       d="m 155.84,61.006867 c 1.92707,-0.314233 4.52654,0.329859 5.44,2.24 0.29253,2.694745 -3.48591,1.914636 -4,0.16 -0.6302,-0.707462 -1.43333,-1.448319 -1.44,-2.4 z"
       id="path19" />
    <path
       style="fill:#3c3c3c;fill-opacity:1"
       d="m 179.52,38.606867 c 1.91781,-0.477024 5.46854,0.71355 4.59,2.63 -3.50243,0.447855 -6.60168,-0.89534 -10.19,-0.55 -0.81329,-0.443012 -5.46239,-0.757677 -2.56,-1.28 1.2638,-0.7011 2.63096,-0.745277 3.52,-0.32 1.48441,-0.552894 3.11738,-0.09989 4.64,-0.48 z"
       id="path15" />
    <path
       style="fill:#3c3c3c;fill-opacity:1"
       d="m 176.32,19.726867 c 1.6519,-0.852927 3.97135,1.844 1.76,2.72 -2.31275,1.939408 -4.69933,3.700561 -7.36,4.8 -3.1143,1.122705 -6.05268,2.670137 -9.28,3.52 -0.0454,-1.53178 2.37179,-2.077683 3.2,-3.52 2.26305,-1.107496 3.88591,-4.644229 6.18,-5.14 1.71902,0.724179 3.52783,-1.781747 5.5,-2.38 z"
       id="path10" />
    <path
       style="fill:#3c3c3c;fill-opacity:1"
       d="m 133.12,7.8868666 c 2.24203,-0.6669252 4.83736,0.9942288 5.76,2.5600004 0.47422,4.202663 -2.66474,7.32285 -5.92,9.44 -2.83773,1.379118 -6.30808,2.438311 -7.68,5.44 -1.97858,2.816178 -0.98231,6.674678 1.12,9.12 2.71703,2.794982 7.41899,2.445485 10.72,1.12 3.00978,0.05044 5.33298,-1.556658 7.84,-2.72 1.31009,-1.83204 4.19341,-3.432281 6.56,-2.4 1.95315,1.127911 0.38253,2.748344 0.64,4.16 1.77067,1.089586 3.47171,-1.049157 4.96,-1.12 -1.021,1.841434 -1.46101,4.223535 0.8,5.6 0.79271,1.018699 3.56965,1.086669 3.52,2.88 -1.48528,2.494352 -5.39786,2.215643 -7.68,0.96 -3.12791,-1.134051 -5.92878,-3.057625 -9.6,-2.88 -2.00538,-0.824381 -4.26398,0.402241 -6.4,0.32 -2.71639,1.147019 -5.30204,2.609674 -7.52,4.96 -0.8478,2.369492 -2.51975,4.95047 -1.44,7.52 0.39971,2.165018 1.48023,4.048038 3.36,5.6 -1.70686,0.279609 -3.06753,-1.602027 -4.48,-2.56 -1.6402,-1.97175 -4.19309,-3.673226 -6.56,-4.64 -2.95728,-0.785519 -6.08069,-0.12989 -8,2.56 -0.65028,2.804728 -3.08312,5.41528 -6.4,4.8 -2.86937,1.142863 -4.61121,3.966775 -4.32,7.2 0.27311,2.19694 0.94479,4.228786 1.28,6.4 1.36408,0.961571 1.01593,3.753492 -0.96,3.2 -2.18871,-2.92744 -6.954977,-1.675836 -8,1.6 -0.446096,3.07236 0.596353,5.528144 1.6,8 0.310404,2.934576 -2.836545,3.557663 -5.12,3.52 -3.790992,0.659244 -5.254453,5.23659 -4.16,8.64 1.324993,2.157282 -0.489731,5.633343 -3.2,4.480003 -2.924374,-1.48609 -6.730796,0.46165 -7.2,3.68 -2.03002,2.65676 -3.78802,-1.40784 -4.96,-2.72 -1.727179,-3.042594 -5.670197,-4.558767 -8.8,-3.040003 -3.009422,1.217843 -4.282629,4.482153 -4.32,7.520003 -0.931404,2.59137 0.659371,5.25436 0.8,7.84 1.090305,3.01877 2.960632,6.05063 2.24,9.6 -1.172143,2.32686 -3.469962,-0.72959 -3.36,-2.4 -0.507527,-2.49537 -2.731361,-6.23951 -5.92,-4.64 -0.801998,-0.3809 1.113772,-2.70725 0.76,-3.96 -0.824302,-3.49175 -5.025337,-6.04323 -3.64,-10.12 0.626345,-3.791717 3.998719,-6.269719 7.52,-7.200003 3.812073,-1.932211 4.301774,-6.841664 7.32,-9.64 1.330526,-1.8038 2.743319,-5.778818 5.6,-3.6 3.252031,2.204522 2.383097,6.405216 2.16,9.68 0.195196,3.350336 5.047844,3.648636 5.76,0.4 2.201998,-4.223402 0.799446,-10.277815 -3.72,-12.36 -4.25757,-1.865199 -5.272012,-9.237949 -0.64,-11.2 2.093064,-0.704829 4.75107,1.923286 6.24,-0.16 0.904167,-2.294356 -2.245319,-5.253272 0.52,-7.16 2.777968,-2.035704 5.729022,1.544037 6.88,3.92 2.939471,3.770243 10.087844,1.144821 9.24,-3.8 -0.467771,-3.367871 -5.651541,-5.113642 -3.84,-8.96 0.413267,-2.501345 2.98788,-4.446781 5.32,-2.76 2.143254,-0.265263 4.18837,0.05369 4.56,2.48 1.39204,3.682671 7.25666,2.307403 7.88,-1.48 0.77448,-3.664761 5.13429,-3.752969 8,-2.88 2.44763,0.750707 6.17723,0.869935 7.2,-2.08 0.68534,-3.87208 -3.81924,-5.288388 -6.88,-4.64 -3.09109,0.254241 -5.30606,2.338127 -8.32,2.88 -3.23732,0.825502 -6.1055,-2.042681 -5.28,-5.28 1.46944,-3.327275 5.32415,-0.909457 7.84,-0.8 4.32656,0.06384 7.57547,-6.941952 3.16,-9.24 -2.84357,-1.623317 -4.67559,1.540098 -6.68,2.84 -3.21549,-0.993784 -4.06661,2.727315 -6.36,3.8 -1.54949,-0.146555 -3.227773,-0.12952 -3.04,-2.32 0.4492,-3.75264 4.0669,-6.380326 7.64,-6.76 2.02952,-1.33358 4.45536,-2.279451 6.88,-1.44 2.67883,-0.235592 2.81981,-3.538494 3.63,-4.95 0.14755,-0.165026 1.98805,-0.494939 2.29,-1.61 1.03975,-1.105489 1.65803,-4.154838 2.32,-4.4 1.35801,-0.719696 2.80947,-1.938304 4.24,-2.8 1.75636,-2.012919 3.46754,-3.6722031 6.24,-4.0000004 z M 114.44,43.246867 c 0.58391,0 -0.39059,0 0,0 z m 7.32,-2.56 c 3.77171,-0.334889 1.813,-6.846705 -1.56,-4.76 -1.48355,0.844168 -2.36111,4.620526 0.28,4.76 0.42667,0 0.85333,0 1.28,0 z m -58.52,56.6 c 2.575982,-0.529372 2.684817,-4.833894 -0.2,-4.6 -2.210876,0.778214 -2.121371,4.003453 0.2,4.6 z"
       id="path7" />
  </g>
  <g
     inkscape:groupmode="layer"
     id="layer4"
     inkscape:label="gray2"
     style="display:inline"
     inkscape:highlight-color="#7c7c7c"
     transform="translate(0,0.45534323)">
    <path
       style="fill:#7c7c7c;fill-opacity:1"
       d="m 24.64,168.84687 c 1.351249,1.54759 0.349189,4.80447 0.6,7 -0.242529,1.76798 -0.881904,4.62527 -3.16,4.52 -2.463553,-3.0269 0.385456,-6.87533 1.64,-9.88 0.363714,-0.51309 0.485678,-1.18345 0.92,-1.64 z"
       id="path50" />
    <path
       style="fill:#7c7c7c;fill-opacity:1"
       d="m 33.96,161.20687 c 1.618487,0.30002 1.872833,3.40685 1.88,5.08 -0.117435,3.49028 -1.650692,6.66013 -2.08,10.08 -0.675129,2.43014 -1.405931,5.21286 0.16,7.52 0.77618,2.93612 -3.792336,2.28192 -2.88,-0.32 -0.09283,-5.41641 2.986019,-10.11623 2.24,-15.68 -0.263859,-1.94404 0.222603,-3.77675 0.92,-5.4 -0.309194,-0.36016 -0.338367,-0.83167 -0.24,-1.28 z"
       id="path48" />
    <path
       style="fill:#7c7c7c;fill-opacity:1"
       d="m 49.96,150.64687 c 1.705496,1.91736 -1.041906,7.21128 2.36,8.44 3.136165,-1.09028 1.545901,4.2004 -0.68,2.6 -3.528912,-1.24569 -2.240883,-6.00563 -2.04,-8.84 0.02692,-0.77951 0.472579,-1.3628 0.36,-2.2 z"
       id="path47" />
    <path
       style="fill:#7c7c7c;fill-opacity:1"
       d="m 39.68,120.52687 c 3.32609,-1.18174 1.79972,5.67792 -0.6,2.52 -0.579773,-0.7899 -0.07684,-1.9234 0.6,-2.52 z"
       id="path40" />
    <path
       style="fill:#7c7c7c;fill-opacity:1"
       d="m 12.16,106.76687 c 3.576649,-0.13986 1.171216,6.02665 -1.6,4.8 -1.4854638,-1.58937 -0.143136,-4.08038 1.6,-4.8 z"
       id="path35" />
    <path
       style="fill:#7c7c7c;fill-opacity:1"
       d="m 29.44,95.246867 c 3.384076,-1.51717 5.498395,4.013876 2.12,5.320003 -2.905872,1.53668 -5.437766,-2.826233 -2.8,-4.720003 0.0031,-0.422246 0.429938,-0.410532 0.68,-0.6 z"
       id="path33" />
    <path
       style="fill:#7c7c7c;fill-opacity:1"
       d="m 19.84,93.006867 c 3.487367,-0.19308 2.85347,4.681374 1.64,6.760003 -0.5981,1.21895 -0.764609,4.25658 -1,4.6 -0.697866,-2.06254 0.297582,-5.16723 -2.24,-6.560003 -2.551702,-1.749123 -6.096361,2.849523 -8,-0.48 0.413779,0.02756 3.319754,-0.285774 4.32,-1.28 1.794116,-0.937279 3.432315,-2.317944 5.28,-3.04 z"
       id="path32" />
    <path
       style="fill:#7c7c7c;fill-opacity:1"
       d="m 63.04,92.686867 c 2.884817,-0.233894 2.775982,4.070628 0.2,4.6 -2.320101,-0.608853 -2.41979,-3.799471 -0.2,-4.6 z"
       id="path31" />
    <path
       style="fill:#7c7c7c;fill-opacity:1"
       d="m 37.76,71.566867 c 3.65317,-1.220744 4.79017,5.139674 1.28,5.76 -3.465227,1.087776 -4.474097,-4.926762 -1.28,-5.76 z"
       id="path27" />
    <path
       style="fill:#7c7c7c;fill-opacity:1"
       d="m 2.88,68.366867 c 3.369105,-1.183468 2.7897867,5.236542 -0.44,3.96 -1.4388512,-0.722421 -1.0698121,-3.535728 0.44,-3.96 z"
       id="path26" />
    <path
       style="fill:#7c7c7c;fill-opacity:1"
       d="m 9.64,56.166867 c -0.2374271,-0.206604 2.545713,0.197896 3.36,0.48 3.444,0.316774 6.789717,2.449444 8.12,5.64 1.821972,3.987165 -0.582604,8.132302 -3.48,10.92 -1.643783,1.321714 -1.073209,4.50925 1.4,3 4.08957,-0.877405 7.303553,-5.764068 11.8,-4.12 3.23584,2.381982 -0.438659,6.733569 -3.44,7.04 -0.857792,0.523958 -3.558091,1.673648 -3.4,1.08 1.424947,-2.747611 -2.667211,-3.987824 -4.36,-2.12 -1.903849,0.599842 -6.031519,1.721684 -5.56,-1.72 0.737977,-3.1049 4.418313,-4.782647 4.96,-8.16 1.2891,-4.341169 -1.565286,-9.214012 -6.04,-9.96 -1.221446,-0.454671 -2.402224,-1.195769 -3.36,-2.08 z"
       id="path18" />
    <path
       style="fill:#7c7c7c;fill-opacity:1"
       d="m 178.6,37.046867 c 2.06558,-0.194673 4.48918,0.192225 6.68,0.28 2.3097,0.218397 3.1483,3.59266 0.48,4 -2.52912,0.945857 -0.80774,-2.358409 -3.04,-2.4 -2.7438,-0.744253 -5.61477,-0.0033 -8.44,0.12 0.32361,-1.332854 3.79105,-0.468663 4.32,-2 z"
       id="path14" />
    <path
       style="fill:#7c7c7c;fill-opacity:1"
       d="m 120.64,35.726867 c 3.51433,-1.353536 4.52467,5.160109 0.8,4.96 -2.35441,0.666877 -3.46617,-2.053003 -2.08,-3.68 -0.23471,-0.904336 0.75458,-0.899191 1.28,-1.28 z"
       id="path13" />
    <path
       style="fill:#7c7c7c;fill-opacity:1"
       d="m 69.12,28.366867 c 3.627977,-1.367348 6.308775,3.000996 4.8,6.08 -1.14843,2.44021 -3.730264,5.436411 -1.32,8.04 2.351766,3.131072 8.023882,0.641506 7.72,-3.24 -0.470857,-2.01931 -1.61631,-5.343554 1.44,-5.92 3.975415,0.468399 5.016086,5.534473 3.04,8.48 -1.814245,2.715936 -1.254119,7.041523 2.24,8 3.661897,1.246692 5.838875,-2.410867 6.88,-5.28 0.573127,-2.126828 4.006345,-2.192555 3.84,0.32 1.170298,2.693079 4.35999,-0.692947 6.08,1.6 2.30805,3.194584 6.71271,1.093158 9.28,-0.64 1.06383,-0.753175 2.33492,-2.217466 1.64,-2.84 3.34049,-1.108502 8.7219,-2.346638 10.64,1.76 1.00412,3.362175 -2.98751,5.072149 -5.56,4.28 -3.10498,-0.744014 -7.65768,-1.861074 -9.4,1.8 -0.16557,2.957111 -3.63206,5.306245 -6.12,4.12 -2.67387,-0.350929 -1.82369,-5.44202 -5.28,-4.32 -2.261228,-0.503799 -5.462766,-1.412457 -6.2,1.8 -1.700783,2.570348 0.003,5.175194 1.88,7 3.780254,2.944014 0.461347,9.180012 -4,8.48 -3.428894,0.01308 -4.166276,-3.61861 -6.44,-5.4 -1.769617,-1.716847 -4.580901,-0.946115 -5.24,1.4 -0.51579,2.105742 2.554871,5.240241 -0.48,6.24 -2.301548,-0.105196 -5.658992,-1.887163 -7.04,0.96 -2.881288,3.690964 -0.04661,9.061003 4,10.4 3.968174,3.189626 4.459791,9.767015 0.96,13.44 -3.211468,2.090057 -5.489826,-2.55375 -4.16,-5.12 0.572662,-3.092679 -1.136991,-7.761122 -4.8,-7.36 -2.220244,1.593907 -3.088432,4.519996 -5.08,6.44 -1.813962,3.091383 -3.154237,7.103737 -7.08,7.96 -5.574561,1.424605 -8.27606,9.304753 -3.84,13.440003 3.006574,2.97877 0.990863,8.65232 -3.04,9.44 -4.176058,-0.29314 -4.232447,-5.56919 -4,-8.8 -0.186938,-3.06571 -3.691402,-2.56944 -4.76,-0.28 -2.039382,3.2191 0.296902,7.65553 -2.56,10.56 -1.234599,2.6206 -0.518855,5.50951 1.2,7.68 1.562396,3.14027 -0.262759,6.56739 -1.24,9.56 -1.365624,1.10598 0.248826,-2.79885 -0.32,-3.84 -0.261192,-2.65408 -2.106334,-5.86921 -4.76,-6.36 2.767529,3.35664 2.739399,8.33795 0.96,12.16 -0.868627,1.93956 -0.625362,2.68495 1.4,1.48 1.658476,-1.17601 1.063395,0.28956 0.16,1.68 -2.301405,4.22911 -5.57996,8.82664 -4.52,13.8 1.974659,1.11429 -0.335473,2.43273 -1.68,1.68 -1.752223,-1.49189 -1.626916,-3.79003 -0.84,-5.88 1.339807,-4.877 4.667621,-9.19096 4.84,-14.36 0.880514,-3.31714 0.428796,-9.06155 -4.04,-9.16 -4.234224,0.76578 -4.584177,5.7984 -5.6,9.12 -1.228586,4.16339 -2.725413,9.70096 -7.52,11.04 -1.828161,0.5106 -4.420037,-1.41077 -4.64,-2.32 0.326711,-0.69589 2.464047,1.30022 3.4,0.12 5.929636,-2.22531 7.216774,-9.00867 8.76,-14.28 0.471257,-3.59182 4.321803,-8.13312 8.32,-6.08 2.673399,1.81061 5.629687,-1.22329 4.32,-4 -1.052388,-1.47472 -3.464574,-2.7589 -2.12,-5 1.526263,-3.06797 4.713068,-6.95752 1.48,-10.04 -2.236021,-4.40061 -1.169495,-9.988921 2.04,-13.640003 1.018862,-1.432544 3.40655,-3.710429 5.12,-2.16 0.101928,1.955173 -1.16192,4.755167 1.48,5.56 4.271187,-0.276408 5.34546,-6.252511 3.2,-9.28 -1.92562,-2.851688 -1.707215,-7.626358 2.08,-8.8 3.132063,-0.914933 7.71812,-0.188957 9,-4.12 1.629146,-3.969428 -2.908873,-7.313686 -6.6,-6.6 -3.432931,0.02281 -2.653944,-4.398023 0.36,-4.44 2.54713,-0.235728 4.694882,-2.205554 4,-4.96 0.479249,-2.136766 2.163464,-1.687545 3.64,-1.16 3.148298,-0.259159 5.197793,-4.486895 3.48,-7 -1.398219,-0.0132 -4.299347,-1.510915 -2.04,-2.76 1.667187,-0.236638 2.721698,-2.995696 0.16,-2.4 -3.695639,-0.321247 -3.621456,-5.907479 -0.16,-6.56 2.883112,-0.593367 -0.738714,-2.617908 -0.64,-4.16 -0.382103,-2.907501 2.864929,-3.990732 5.12,-3.2 1.434955,-1.328985 2.351033,-3.244129 4.16,-4.16 z M 35.55,141.15687 c -0.368837,0.12295 -0.03594,0.012 0,0 z m 0.93,-2.35 c 0,0.58391 0,-0.39059 0,0 z M 68.96,50.606867 c 3.69628,-0.342801 1.785804,-7.179 -1.32,-4.84 -1.870947,1.290568 -1.243392,4.847536 1.32,4.84 z m 45.56,-7.36 c 0.49178,0 0.0479,0 0,0 z"
       id="path12" />
    <path
       style="fill:#7c7c7c;fill-opacity:1"
       d="m 178.24,16.206867 c 3.07203,-0.952749 3.68213,3.504678 1.28,4.8 -1.14895,0.07034 -1.95941,-2.620884 -3.64,-1.08 -1.72748,0.541161 -3.57123,3.211202 -5.16,1.88 2.34782,-1.93355 4.47967,-4.609753 7.52,-5.6 z"
       id="path9" />
    <path
       style="fill:#7c7c7c;fill-opacity:1"
       d="m 132.48,4.3668666 c 3.35317,-1.3137924 8.09002,2.0268505 6.4,5.6000004 -1.44546,-0.8117265 -2.66832,-2.3292654 -4.64,-2.2400004 -3.33182,0.038863 -5.77786,2.2015324 -7.84,4.6400004 -1.53607,0.22718 -2.53953,2.207917 -3.8,2.2 1.01562,-4.016065 4.30536,-6.9228472 7.52,-9.3600004 0.85694,-0.077379 1.5208,-0.7027184 2.36,-0.84 z"
       id="path6" />
    <path
       style="display:inline;fill:#7c7c7c;fill-opacity:1"
       d="m 19.84,2.4468666 c 4.779215,-1.3463111 8.909775,2.2773369 11.2,6.08 3.53049,5.6159824 4.276198,12.8808804 9.48,17.4000004 2.631893,2.43655 7.273193,2.213803 8.92,-1.24 1.658566,-3.049774 0.749153,-6.4084 0.84,-9.72 0.281603,-2.198981 1.273727,-5.4920829 4.28,-4.68 3.22507,1.376661 4.149414,5.605342 7.64,6.76 4.485082,1.477786 7.879669,-3.338279 9.12,-6.96 1.615881,-4.4450641 6.210278,-8.221485 11.08,-6.5200004 4.844568,1.8058324 6.29074,7.3944864 6.6,11.9600004 0.649425,2.537747 3.609696,1.233364 3.48,-0.92 -0.295235,-3.525894 2.652572,-8.9947062 6.84,-7.1600004 3.71327,2.3705204 2.45412,7.0598844 3.08,10.6800004 -0.081,3.174989 2.85303,7.263512 6.28,5 2.3758,-1.529184 4.4238,-5.652443 7.92,-3.84 1.84302,0.901695 1.20471,2.211218 0.52,3.64 -0.21801,2.839466 -3.51937,2.884866 -5.6,2.4 -2.47005,0.786221 -4.66552,2.116658 -7.2,2.72 -2.86751,1.212679 -5.801724,5.249456 -3.52,8 1.25959,-0.387663 3.47204,0.02593 1.28,0.96 -1.54885,2.241415 -5.682571,1.115806 -4.8,-1.92 -0.206587,-2.789572 2.011759,-6.319683 -0.32,-8.64 -3.231229,-1.98352 -5.433112,2.780422 -8.8,1.76 -3.494226,-0.49575 -4.97568,-4.335017 -4.32,-7.52 0.09811,-3.335464 3.375219,-6.200494 2.24,-9.6 0.126751,-3.7420634 -3.38973,-6.9894055 -7.16,-6.5200004 -4.466913,0.7137232 -5.653595,5.6914904 -7.56,9.0800004 -1.231428,2.520385 -2.987443,4.479963 -5.76,5.44 -3.230853,0.987214 -6.727913,-0.878004 -8,-3.84 -1.018028,-1.683874 -2.858368,-2.915768 -4,-4 -2.395411,-0.365493 -2.590883,2.300755 -2.08,4 0.08421,4.741107 1.686728,10.687131 -2.44,14.2 -3.890622,2.525967 -8.32465,-0.736881 -10.96,-3.68 -2.383258,-3.018317 -4.237073,-6.442468 -5.2,-10.16 -2.006725,-4.551261 -4.813959,-9.391665 -9.4,-11.7200004 -1.056832,-0.6598054 -4.232651,-1.0137532 -4.28,-1.08 0.115848,-0.2559884 0.43288,-0.1689747 0.6,-0.36 z M 91.4,24.966867 c 2.759209,-1.961297 2.352277,-6.053726 3,-9.08 -0.511049,-2.982809 2.565345,-6.9938865 5.64,-4.68 0.84926,-0.941149 -1.382258,-3.1275033 -2.92,-2.8400004 -3.253382,0.3429217 -3.288759,4.3974074 -3.68,6.8800004 -0.228739,3.302043 -0.611217,6.606691 -2.2,9.56 z"
       id="path4" />
    <path
       style="fill:#7c7c7c;fill-opacity:1"
       d="m 42.88,67.726867 c 2.407936,-1.25929 3.747465,3.602364 0.8,3.36 -1.86454,0.01113 -2.302361,-2.566041 -0.8,-3.36 z"
       id="path24" />
    <path
       style="fill:#7c7c7c;fill-opacity:1"
       d="m 50.24,54.926867 c 3.03096,-1.042907 4.364899,3.934934 1.4,4.92 -2.834302,0.325438 -4.070027,-3.481826 -1.4,-4.92 z"
       id="path17" />
    <path
       style="fill:#7c7c7c;fill-opacity:1"
       d="m 77.12,23.246867 c 2.666041,-0.696036 2.874639,4.379722 0,3.52 -1.647991,-0.492493 -1.400999,-2.916135 0,-3.52 z"
       id="path11" />
  </g>
  <g
     inkscape:groupmode="layer"
     id="layer5"
     inkscape:label="gray3"
     style="display:inline"
     inkscape:highlight-color="#adadad"
     transform="translate(0,0.45468879)">
    <path
       style="fill:#adadad;fill-opacity:1"
       d="m 96,8.5268666 c 1.900543,-0.8388492 4.43471,0.9004273 4.28,2.6800004 -2.233052,-1.5249494 -5.031076,-0.203882 -5.6,2.4 -0.862898,3.770757 -0.142043,8.328007 -3.04,11.36 -0.842057,-0.829079 1.181953,-2.690852 1.12,-4 0.647229,-3.485971 0.537774,-7.197575 1.64,-10.52 C 94.814335,9.70884 95.358074,9.109512 96,8.5268666 Z"
       id="path8" />
    <path
       style="display:inline;fill:#adadad;fill-opacity:1"
       d="m 18.56,3.0868666 c 0.993103,-0.6185489 3.931821,0.2879819 5.6,1.12 4.989806,3.0814912 7.827321,8.6415164 9.72,13.9600004 1.042664,3.724433 3.530649,7.002815 6.32,9.68 2.753991,2.23572 7.144686,3.938053 9.88,0.68 3.072158,-4.208935 1.300528,-9.685233 1.4,-14.52 -1.265563,-2.072784 2.335575,-3.950267 3.08,-1.8 3.263553,1.727955 3.862963,6.591389 8,7.04 3.73425,0.494646 7.19479,-1.958828 8.52,-5.24 2.212547,-3.260401 3.04122,-8.6128416 7.64,-9.3200004 3.071265,-0.6756805 6.214261,1.516202 7.08,4.44 1.157963,3.3047464 -0.01324,6.6319374 -1.64,9.6400004 -0.893843,3.303986 -0.6588,7.974098 3.2,9.28 3.037492,1.238628 5.155141,-1.681175 7.84,-2.08 3.732551,-0.07112 2.9135,4.708415 2.24,7.04 -0.938628,2.439942 0.264872,6.611547 3.56,4.84 1.29779,-0.744985 1.96342,-1.630174 2.68,-2.12 1.70546,-1.53608 2.80195,-4.162827 5.6,-3.36 2.01506,-1.370644 4.033,-4.589493 6.88,-2.72 4.34742,2.610764 0.5284,9.766303 -4,9.12 -2.25233,-0.55068 -5.93575,-2.21591 -7.2,0.8 -0.8255,3.237319 2.04268,6.105502 5.28,5.28 1.77856,0.05772 3.25835,-1.740047 4.88,-1.44 -1.82358,3.287531 -6.12836,5.183885 -9.84,4.48 -1.47016,-2.106268 -3.92808,-2.907371 -6.2,-1.8 -1.879574,-0.606143 -1.440259,-4.60932 -4.2,-2.84 -2.028751,2.524804 -2.762561,7.367564 -7.04,6.72 -3.728997,-0.330747 -5.273875,-5.015894 -3.08,-7.88 1.704532,-2.94839 1.362152,-7.545423 -2.4,-8.72 -2.960685,-0.293092 -3.220053,3.339099 -2.04,5.24 0.693445,4.063753 -4.72516,7.061894 -7.64,4.12 -2.282788,-2.549755 -0.32162,-5.669903 1.2,-8 1.460964,-3.074289 -0.741677,-7.510329 -4.56,-6.48 -2.572689,0.806626 -3.129844,5.128913 -6.12,4.12 -3.455213,-0.559096 -4.419609,4.29678 -1.8,5.96 1.052477,2.080468 -2.956582,1.340295 -3.2,3.44 -1.530239,2.54343 1.270833,5.178084 3.88,4.84 1.113384,1.979357 -4.533406,2.502561 -1.6,4.48 2.176189,-0.210078 3.04315,1.553873 2.56,3.52 -0.272966,2.848791 -3.781441,5.040757 -6.2,3.4 -2.654105,1.20542 -0.235811,5.625851 -3.72,6.2 -1.893716,0.48233 -5.91008,1.591203 -3.96,4.28 2.617906,1.311926 6.640191,0.07144 8.12,3.4 2.217553,3.299885 -1.225764,7.520401 -4.8,7.36 -3.231049,-0.209053 -7.828035,1.756661 -7.04,5.76 0.125495,3.405916 3.688245,6.474647 1.64,9.96 -0.388804,2.621157 -4.497356,4.358758 -5.48,1.24 -0.01129,-1.629573 1.340652,-5.090693 -1.72,-4.28 -4.573625,2.593487 -7.093281,8.237043 -6.12,13.400003 0.188054,2.98389 3.937408,5.37678 1.8,8.52 -1.011885,2.4455 -4.351107,5.72954 -1.44,8.08 3.151693,1.50481 0.89667,7.55022 -2.6,5.48 -3.766507,-2.30594 -7.848707,1.58571 -8.64,5.12 -1.494951,5.26041 -2.526268,11.91063 -8.04,14.68 -1.193535,1.34731 -3.99396,0.19588 -4.4,0 -1.8627529,-3.97256 0.814805,-8.25276 4.28,-10.36 2.450038,-2.06732 5.704479,-5.39734 3.24,-8.68 -1.567434,-2.72206 0.969353,-4.98059 3.32,-5.88 5.132107,-2.45286 9.174702,-9.00787 6.08,-14.4 -1.518282,-2.88019 -7.123063,0.66228 -6.88,-3.52 0.177092,0.30164 0.252577,-2.37056 0.6,-3.08 0.595902,-2.459343 2.879808,-6.439401 -0.12,-8.120003 -2.355202,-0.61261 -4.239551,2.054029 -6.4,2.88 -1.169946,0.903173 -4.067204,1.6554 -4.6,1.08 -0.6395184,-4.411974 2.185083,-8.462978 5.52,-11.04 2.522259,-2.14654 6.55758,-3.846198 8.49,-5.75 1.724213,0.09449 3.497112,-1.562739 5.31,-1.89 2.567761,-1.150091 4.296641,-5.403189 0.92,-6.68 -5.059088,-0.787328 -8.308534,5.182893 -13.24,4.6 -1.113076,-2.726017 2.528507,-4.457743 3.52,-6.72 2.206596,-3.295447 1.35162,-8.108674 -1.64,-10.52 -2.430684,-2.332754 -6.720938,-2.722903 -9.33,-3.11 -3.0067778,-2.14388 -3.7131944,-7.387926 -1.47,-10.65 3.042475,-4.74008 9.128658,-2.46866 13.72,-3.24 5.341636,-0.500576 9.250761,-6.221372 8.48,-11.36 -0.734377,-5.737004 -6.191429,-9.027522 -10.24,-12.48 -3.400327,-2.92738 -6.86533,-7.403341 -4.64,-12.0000004 0.631881,-1.3953976 1.859645,-2.4474216 3.2,-3.2 z M 30.88,100.84687 c 3.477561,-0.53103 2.950637,-6.295695 -0.64,-5.760003 -2.924233,0.289437 -3.644523,5.244763 -0.32,5.760003 0.32,0 0.64,0 0.96,0 z m 7.68,-23.360003 c 3.89533,-0.197197 3.164056,-7.140692 -0.8,-5.92 -2.956018,0.794693 -2.398926,6.112872 0.8,5.92 z m 5.12,-6.4 c 3.103819,0.226778 1.411128,-4.924623 -1,-3.24 -1.252057,0.921733 -0.771938,3.247886 1,3.24 z m 7.68,-11.2 c 3.405955,-0.590122 1.853384,-6.44107 -1.28,-4.8 -2.438731,1.458858 -1.307802,4.705129 1.28,4.8 z m 26.24,-32.96 c 2.957214,-0.166129 1.450078,-4.928484 -0.92,-3.48 -1.137153,1.162762 -0.911369,3.229354 0.92,3.48 z"
       id="path5" />
    <path
       style="fill:#adadad;fill-opacity:1"
       d="m 32.04,128.24687 c 3.963614,0.97628 5.699624,6.44413 4.44,10.2 -0.09835,2.14747 -1.346263,3.75852 -3.4,3.96 -1.583429,0.57573 0.372606,-2.41662 0.52,-3.32 0.930332,-3.48641 1.167246,-7.76377 -1.56,-10.6 z"
       id="path43" />
    <path
       style="fill:#adadad;fill-opacity:1"
       d="m 68.48,45.326867 c 3.355728,-0.595002 3.345203,6.244026 -0.32,5.12 -2.389119,-0.808053 -1.965555,-4.543494 0.32,-5.12 z"
       id="path16" />
  </g>
</svg>
