<?xml version="1.0" encoding="UTF-8" standalone="no"?>
<!-- Created with Inkscape (http://www.inkscape.org/) -->

<svg
   version="1.1"
   id="svg1"
   width="192"
   height="192"
   viewBox="0 0 192 192"
   sodipodi:docname="corner-onlay.svg"
   inkscape:version="1.4 (e7c3feb100, 2024-10-09)"
   xmlns:inkscape="http://www.inkscape.org/namespaces/inkscape"
   xmlns:sodipodi="http://sodipodi.sourceforge.net/DTD/sodipodi-0.dtd"
   xmlns="http://www.w3.org/2000/svg"
   xmlns:svg="http://www.w3.org/2000/svg">
  <defs
     id="defs1">
    <inkscape:path-effect
       effect="offset"
       id="path-effect66"
       is_visible="true"
       lpeversion="1.3"
       linejoin_type="miter"
       unit="mm"
       offset="0.1"
       miter_limit="4"
       attempt_force_join="false"
       update_on_knot_move="true" />
    <inkscape:path-effect
       effect="offset"
       id="path-effect65"
       is_visible="true"
       lpeversion="1.3"
       linejoin_type="miter"
       unit="mm"
       offset="0.1"
       miter_limit="4"
       attempt_force_join="false"
       update_on_knot_move="true" />
    <inkscape:path-effect
       effect="offset"
       id="path-effect64"
       is_visible="true"
       lpeversion="1.3"
       linejoin_type="miter"
       unit="mm"
       offset="0.1"
       miter_limit="4"
       attempt_force_join="false"
       update_on_knot_move="true" />
    <inkscape:path-effect
       effect="offset"
       id="path-effect63"
       is_visible="true"
       lpeversion="1.3"
       linejoin_type="miter"
       unit="mm"
       offset="0.1"
       miter_limit="4"
       attempt_force_join="false"
       update_on_knot_move="true" />
    <inkscape:path-effect
       effect="offset"
       id="path-effect62"
       is_visible="true"
       lpeversion="1.3"
       linejoin_type="bevel"
       unit="mm"
       offset="0.1"
       miter_limit="4"
       attempt_force_join="false"
       update_on_knot_move="true" />
    <inkscape:path-effect
       effect="offset"
       id="path-effect61"
       is_visible="true"
       lpeversion="1.3"
       linejoin_type="bevel"
       unit="mm"
       offset="0.1"
       miter_limit="4"
       attempt_force_join="false"
       update_on_knot_move="true" />
    <inkscape:path-effect
       effect="offset"
       id="path-effect60"
       is_visible="true"
       lpeversion="1.3"
       linejoin_type="bevel"
       unit="mm"
       offset="0.1"
       miter_limit="4"
       attempt_force_join="false"
       update_on_knot_move="true" />
    <inkscape:path-effect
       effect="offset"
       id="path-effect59"
       is_visible="true"
       lpeversion="1.3"
       linejoin_type="bevel"
       unit="mm"
       offset="0.1"
       miter_limit="4"
       attempt_force_join="false"
       update_on_knot_move="true" />
    <inkscape:path-effect
       effect="offset"
       id="path-effect58"
       is_visible="true"
       lpeversion="1.3"
       linejoin_type="bevel"
       unit="mm"
       offset="0.1"
       miter_limit="4"
       attempt_force_join="false"
       update_on_knot_move="true" />
    <inkscape:path-effect
       effect="offset"
       id="path-effect57"
       is_visible="true"
       lpeversion="1.3"
       linejoin_type="round"
       unit="mm"
       offset="0.1"
       miter_limit="4"
       attempt_force_join="false"
       update_on_knot_move="true" />
  </defs>
  <sodipodi:namedview
     id="namedview1"
     pagecolor="#ffffff"
     bordercolor="#666666"
     borderopacity="1.0"
     inkscape:showpageshadow="2"
     inkscape:pageopacity="0.0"
     inkscape:pagecheckerboard="0"
     inkscape:deskcolor="#d1d1d1"
     showgrid="false"
     inkscape:zoom="90.509668"
     inkscape:cx="25.008378"
     inkscape:cy="175.16361"
     inkscape:window-width="2003"
     inkscape:window-height="1339"
     inkscape:window-x="0"
     inkscape:window-y="0"
     inkscape:window-maximized="0"
     inkscape:current-layer="svg1"
     inkscape:document-units="mm" />
  <g
     inkscape:groupmode="layer"
     id="g57"
     inkscape:label="Outline"
     style="display:none;fill:#1aeeee;fill-opacity:1"
     inkscape:highlight-color="#0e0e0e"
     transform="translate(9.2841172e-4,0.07974436)">
    <path
       style="display:inline;fill:#1aeeee;fill-opacity:1"
       d="m 136.96,72.56482 c 2.61906,-0.843497 7.11354,0.92357 5.44,4.16 -2.23627,2.215033 -6.32228,-0.211662 -6.72,-2.88 -0.0612,-0.63766 0.86244,-1.093757 1.28,-1.28 z"
       id="path2"
       sodipodi:nodetypes="cccc" />
    <path
       style="display:inline;fill:#1aeeee;fill-opacity:1"
       d="m 114.24,67.76482 c 3.10815,-1.609014 4.9369,5.224118 1.12,4.64 -2.42087,0.538474 -3.5795,-3.977513 -1.12,-4.64 z"
       id="path51"
       sodipodi:nodetypes="ccc" />
    <path
       style="display:inline;fill:#1aeeee;fill-opacity:1"
       d="m 2.56,68.08482 c 3.3913417,-1.482698 5.4106895,3.820281 2.4,5.6 -2.2073999,2.144611 -5.93811658,-1.15807 -4.32,-3.68 0.14159602,-0.765238 1.2754206,-1.642777 1.92,-1.92 z"
       id="path57"
       sodipodi:nodetypes="cccc"
       transform="translate(0.203125)" />
    <path
       style="display:inline;fill:#1aeeee;fill-opacity:1"
       d="m 12.16,106.48481 c 2.387236,-0.74755 3.223802,2.86856 2.24,4.48 -0.380287,2.2687 -4.108853,3.92534 -5.12,1.28 -1.1918949,-2.28071 0.987106,-4.64095 2.88,-5.76 z"
       id="path56"
       sodipodi:nodetypes="cccc" />
    <path
       style="display:inline;fill:#1aeeee;fill-opacity:1"
       d="m 64,112.56481 c 2.40258,-0.87743 4.54155,2.19291 3.84,4.48 -0.455114,2.90333 -4.431237,0.70509 -4.32,-1.44 -0.375833,-0.91756 -0.227632,-2.3618 0.48,-3.04 z"
       id="path55"
       sodipodi:nodetypes="cccc" />
    <path
       style="display:inline;fill:#1aeeee;fill-opacity:1"
       d="m 88,126.64481 c 2.098107,-0.8109 3.44329,1.51071 5.12,2.24 1.133363,2.25138 3.757428,4.74712 2.08,7.52 -2.203158,2.47277 -6.231496,0.1384 -6.72,-2.56 -1.465819,-1.79357 -2.828932,-4.45017 -1.6,-6.72 0.430712,0.008 0.731097,-0.35994 1.12,-0.48 z"
       id="path54"
       sodipodi:nodetypes="cccccc" />
    <path
       style="display:inline;fill:#1aeeee;fill-opacity:1"
       d="m 24.32,168.56481 c 2.612313,-0.70747 1.274731,3.47194 1.6,5.12 0.758484,2.63955 0.119483,5.72785 -1.44,7.84 -1.369392,1.41833 -3.998794,1.08453 -4.32,-1.12 -0.39803,-3.94461 1.626219,-6.88587 3.04,-10.08 0.657818,-0.46421 0.564538,-1.25503 1.12,-1.76 z"
       id="path53"
       sodipodi:nodetypes="cccccc" />
    <path
       style="display:inline;fill:#1aeeee;fill-opacity:1"
       d="m 120.64,64.56482 c 1.68492,-0.632452 3.46048,0.923607 4.32,2.08 1.68897,1.93609 -0.89086,4.633952 -2.88,3.52 -2.36111,-0.511043 -4.67978,-4.235197 -1.44,-5.6 z"
       id="path52"
       sodipodi:nodetypes="cccc" />
    <path
       style="display:inline;fill:#1aeeee;fill-opacity:1"
       d="m 63.53516,15.072298 c 0.42556,0.02365 0.884921,-0.06866 1.978042,-0.472059 1.093121,-0.403401 1.922139,-1.758873 2.672345,-3.295551 0.481717,-0.986723 0.942227,-2.0715896 1.548828,-2.9511724 1.184118,-2.6473704 3.098682,-5.3375443 5.953125,-6.5917969 2.999363,-1.38733217 7.139082,-1.06975836 9.810547,0.8359376 3.210956,2.1761548 4.577524,5.7682602 5.013315,7.3899329 0.43579,1.6216728 0.185021,2.2347138 0.699575,0.8815518 0.260977,-0.686311 0.242791,-0.935029 0.780752,-2.4953959 0.924659,-1.3393959 3.596278,-4.0590079 6.93581,-3.609895 3.339531,0.4491129 5.346781,4.628946 5.449751,8.2099519 0.0601,1.642579 -0.0817,3.449709 0.0859,5.042969 0.16335,1.552814 0.6119,2.853994 1.75586,3.707031 0.65618,0.0485 1.20129,-0.120913 1.7207,-0.457031 0.547,-0.353969 1.05822,-0.883148 1.57422,-1.455078 1.01142,-1.121042 2.1057,-2.487651 3.69727,-2.714844 1.79387,-0.459725 3.81228,-0.208597 5.24804,0.957031 0.65267,-0.843861 1.07917,-1.796068 1.42383,-2.820312 0.56357,-1.674783 1.0121,-3.542062 2.375,-5.029297 1.67747,-3.169864 4.81911,-6.1874792 7.93009,-7.5192292 3.11097,-1.33175 7.68299,-1.5601217 9.91364,1.7086803 2.96406,2.8556347 3.28622,7.1103919 2.83399,11.0351569 -0.35439,3.37605 -2.25527,6.401548 -5.11719,8.425781 -2.78993,1.899202 -6.79102,3.502205 -6.55664,7.285156 0.31962,0.786542 0.81876,1.380012 1.45508,1.818359 0.65176,0.448985 1.44583,0.736889 2.30273,0.884766 1.71381,0.295754 3.67564,0.01912 5.26331,-0.56385 1.58767,-0.582969 3.06939,-1.766364 4.6355,-2.871737 1.54397,-1.089747 3.20016,-2.104767 4.97132,-2.382581 1.77115,-0.277814 2.65526,0.531493 3.33335,1.460659 0.32773,0.449093 0.61136,0.921488 0.90625,1.308594 0.29488,0.387106 0.59484,0.678299 0.92187,0.814453 0.3257,0.135603 0.7025,0.15322 1.27734,-0.08789 2.05856,-0.995011 3.9191,-2.547674 5.74024,-4.25 1.80733,-1.689421 3.61609,-3.565832 5.52148,-5.128906 0.87023,-1.166684 1.97647,-2.131971 3.0918,-3.060547 1.14107,-0.950005 1.65907,-1.769403 3.36541,-2.983627 1.70634,-1.214224 5.58527,-4.051489 8.69126,-2.000744 3.57937,1.678013 2.49979,6.646613 -0.0644,8.746094 -0.64577,1.004869 -1.57593,1.787844 -2.51953,2.490234 -0.97069,0.722556 -1.97187,1.389199 -3.90084,2.539569 -1.92897,1.150371 -4.86233,2.933186 -8.29062,3.550276 -1.3398,0.536307 -2.78213,1.013288 -4.08008,1.679688 -1.25787,0.645827 -2.36438,1.469932 -3.14844,2.677734 0.0946,0.465202 0.27814,0.787542 0.54883,1.011719 0.29885,0.247495 0.70876,0.400319 1.1875,0.474609 0.95749,0.148589 2.15734,-0.02704 4.28764,-0.257267 2.1303,-0.230226 5.2569,-1.088619 8.53464,-1.674468 4.12211,-0.671923 9.22958,-0.955079 13.1582,0.498047 2.14099,0.836652 4.17389,3.394244 3.36524,5.642578 -0.20707,0.575717 0.006,0.641323 -1.92844,1.977091 -1.93424,1.335768 -7.16291,1.772136 -10.88624,0.790516 -1.45845,-0.145399 -2.93104,-0.439704 -4.35937,-0.548829 -1.42834,-0.109124 -2.80226,-0.03554 -3.80048,0.301801 -0.99823,0.337341 -1.55696,0.619084 -2.13111,0.961911 -0.81221,0.484976 -1.70188,1.118668 -2.76758,1.328125 -1.76328,1.90095 -4.53702,3.185627 -6.84156,3.800501 -2.30454,0.614874 -4.46471,0.424428 -5.8212,-0.272881 -1.35649,-0.697308 -2.09979,-1.002857 -2.88796,-1.287352 -0.76816,-0.277269 -1.61365,-0.546663 -2.38672,-0.955078 -1.4983,-0.672236 -3.30594,-1.082677 -5.08984,-1.097657 -1.7839,-0.01497 -3.54073,0.364254 -4.95899,1.234375 -0.95289,0.565867 -1.75695,1.508831 -2.23437,2.56836 -0.4736,1.051029 -0.62062,2.206487 -0.32618,3.216797 1.06225,2.449031 3.81458,3.259737 6.41211,3.597656 2.31869,0.331143 4.49519,0.981009 6.60157,1.767578 2.27977,0.497282 4.95794,0.227672 7.53125,0.339844 2.58694,0.112765 4.95875,0.609351 6.89535,2.937387 1.64934,2.549006 -1.01437,5.823599 -3.58158,5.576313 -2.56721,-0.247286 -4.12623,-0.493038 -5.80608,-1.058584 -1.67988,-0.565555 -3.28586,-1.204043 -5.15647,-1.512826 -1.87061,-0.308784 -3.70875,0.049 -5.59001,0.508826 -1.82699,0.446606 -3.73519,0.992981 -5.77734,0.988281 -0.89163,0.807601 -1.89163,0.669043 -2.82226,0.326172 -0.46617,-0.171749 -0.939,-0.391987 -1.36719,-0.550782 -0.43499,-0.16132 -0.84119,-0.26516 -2.11149,-0.655899 -1.2703,-0.390739 -3.03,-1.788532 -4.69907,-3.262072 -1.67309,-1.477085 -3.27989,-3.047617 -5.01172,-4.230469 -0.37957,-0.231902 -0.83651,-0.437324 -1.30664,-0.572266 -0.473,-0.135762 -0.95823,-0.199522 -1.38867,-0.164062 -0.43044,0.03546 -0.79938,0.166323 -1.08398,0.410156 -0.28078,0.240556 -0.49553,0.601375 -0.59571,1.169922 0.4846,3.16743 -1.93255,5.946395 -5.23828,5.304687 -1.87775,1.000825 -2.77123,2.988758 -2.74023,5.027344 0.0314,2.067323 1.01697,4.126354 2.5138,5.0073 1.49683,0.880945 2.97589,1.196102 4.43979,1.600203 1.45818,0.402523 2.93371,0.91336 3.97266,2.134766 2.54258,2.925869 1.87394,7.777553 -1.3418,10.148437 -2.31295,1.634678 -5.31365,1.514888 -7.50212,0.509568 -2.18847,-1.00532 -3.62093,-2.806437 -5.06433,-4.335787 -0.97,-1.027754 -1.96871,-1.960978 -3.15625,-2.52539 -0.93385,-0.341192 -1.67726,-0.07953 -2.01954,0.349609 -0.17164,0.215205 -0.25064,0.469658 -0.21484,0.761719 0.0358,0.292061 0.19348,0.632 1.20608,1.83662 1.0126,1.20462 2.57728,4.732895 1.41488,6.405946 -1.1624,1.673052 -1.44771,2.061294 -1.61928,2.849232 -0.0857,0.393969 -0.0845,0.764907 0.0274,1.095703 0.11186,0.330796 0.33188,0.634978 0.92531,1.272593 0.59342,0.637615 1.53777,1.410082 2.55906,2.15905 1.00534,0.737267 2.13079,1.486737 3.06836,2.312507 0.79776,0.68352 1.63835,1.54018 2.1836,2.46094 0.85317,1.44077 0.9547,2.91428 -0.80619,4.31639 -2.04815,0.54032 -3.87168,-0.49194 -5.1274,-1.83203 -1.23878,-1.32202 -2.37451,-2.96545 -3.45801,-4.20805 -1.083492,-1.24259 -2.230915,-2.59433 -3.624024,-3.418887 -0.903282,-0.534637 -1.847429,-0.833524 -2.761719,-0.808594 -0.650983,0.328922 -1.000195,0.735728 -1.158203,1.203125 -0.164647,0.487044 -0.131796,1.064673 0.06055,1.677736 0.192346,0.61306 0.541586,1.25196 0.964844,1.83203 0.423257,0.58008 0.920011,1.1017 2.688616,2.82148 1.768604,1.71977 4.881636,4.93886 6.192216,8.57628 1.31058,3.63741 0.56002,8.7312 -3.658003,9.47527 -3.467643,0.56574 -6.791486,-2.27153 -8.072266,-5.30078 -1.069579,-1.43537 -1.776785,-3.17235 -2.560547,-4.70508 -0.802448,-1.56927 -1.712005,-2.99195 -2.863822,-3.78448 -1.151817,-0.79253 -2.069813,-0.78524 -2.847118,-0.38761 -0.777305,0.39762 -1.375071,1.18345 -1.636063,2.50413 -0.260992,1.32067 0.216902,2.63393 0.925077,3.99393 1.061605,2.03875 2.692419,4.15484 1.830079,6.93946 -0.795796,2.79137 -4.391467,2.07194 -5.195313,-0.30274 -0.55203,-1.3395 -0.588516,-3.24787 -0.867187,-4.66211 -0.147554,-0.74882 -0.367233,-1.4229 -0.732422,-1.95117 -0.36519,-0.52827 -0.867631,-0.92602 -2.012075,-1.439 -1.144445,-0.51299 -2.042078,-1.63807 -2.794571,-2.81486 -0.751026,-1.17449 -1.451866,-2.26694 -2.333494,-3.96494 -0.881628,-1.69801 -3.231786,-3.74712 -5.834477,-3.17177 -0.984993,0.37778 -1.685268,0.98763 -2.18164,1.76171 -0.500501,0.78052 -0.790124,1.73179 -0.908203,2.75196 -0.236159,2.04034 0.223141,4.35131 1.207999,6.92959 0.984857,2.57828 2.582329,6.02034 3.104489,9.90091 0.186288,1.71437 0.299479,3.43097 0.566406,5.06445 0.266927,1.63348 0.685521,3.18171 1.271886,4.55476 0.586365,1.37304 1.173126,2.58112 1.802337,3.79291 0.931074,1.79317 1.977944,3.63975 2.707733,6.11046 0.729789,2.4707 1.251244,6.5838 -0.950609,8.75085 -0.721347,0.90752 -2.262568,0.6868 -2.831311,0.47465 -2.208841,-0.824 -3.125619,-3.78763 -3.73448,-6.23997 -0.608861,-2.45235 -0.544902,-5.82215 -1.179273,-8.95853 -0.634372,-3.13639 -3.241554,-6.50095 -5.052442,-8.28808 -1.810888,-1.78713 -1.245666,-2.46208 -1.553413,-3.70523 -0.308955,-1.24803 -0.570492,-2.48532 -1.048829,-3.59766 -0.195876,-0.48446 -0.427354,-0.70373 -0.648437,-0.79883 -0.221083,-0.0951 -0.469575,-0.0835 -0.753906,0.0371 -0.284331,0.12057 -0.586397,0.35449 -0.839844,0.6543 -0.253447,0.2998 -0.458785,0.66499 -0.990909,1.64549 -0.532124,0.98049 -0.952043,2.86402 -1.024713,4.81542 -0.07244,1.9452 0.199595,3.95327 0.997699,6.69579 0.798104,2.74253 2.327132,6.33235 3.642973,10.03477 1.275777,3.52497 1.564839,8.48254 1.356339,11.50991 -0.208501,3.02736 -0.796858,4.62376 -2.766529,5.88074 -0.443616,0.4946 -0.93787,0.8171 -1.46875,0.97266 -2.150799,0.63021 -4.498143,-1.40518 -5.185547,-3.37891 -1.509558,-3.07434 -0.457263,-6.68915 0.138672,-9.65039 0.684605,-3.54247 1.073576,-7.9793 0.167968,-11.5 -0.259921,-0.79166 -0.571034,-1.81012 -1.009765,-2.72266 -0.440687,-0.9166 -1.008798,-1.70457 -1.710938,-2.0664 -0.328654,-0.1694 -0.694214,-0.243 -1.11914,-0.2168 -2.953682,1.79947 -3.442802,5.41542 -3.691293,7.76916 -0.248492,2.35374 -0.136992,3.71085 0.05057,5.08848 0.184634,1.35611 0.453155,2.79618 0.665424,5.2141 0.212268,2.41792 1.079583,6.17887 0.510357,9.92454 -0.23124,1.77162 -0.84347,3.38445 -1.486328,4.94336 -0.644116,1.56196 -1.320848,3.08061 -1.737757,4.62126 -0.41691,1.54065 -0.48554,3.1834 -0.48304,4.87917 0.0038,2.52106 0.165733,5.21582 -0.507221,7.54404 -0.672955,2.32822 -2.344008,6.33248 -4.560181,6.39042 -2.061494,-0.75966 -3.637135,-1.23421 -3.645535,-3.5495 -1.371655,-3.32194 -0.316444,-7.97362 0.338705,-10.40387 0.655149,-2.43026 0.961285,-3.69782 0.993315,-5.75245 0.03139,-2.01375 -0.133803,-4.09641 -0.214843,-6.03125 -0.318847,-0.50236 -0.777922,-0.89436 -1.332032,-1.23828 -0.577003,-0.35813 -1.241966,-0.66415 -1.890625,-1.00977 -1.320121,-0.70339 -2.353741,-1.19174 -2.854924,-3.70042 -0.501183,-2.50868 0.431228,-6.24258 1.665018,-9.33317 1.23379,-3.09058 2.400187,-6.62983 3.455521,-10.23012 0.186173,-1.22818 0.514022,-2.71286 0.576172,-4.12891 0.06089,-1.38732 -0.145715,-2.66518 -0.912109,-3.59375 -0.573444,-0.17279 -1.029952,-0.14044 -1.427735,0.0449 -0.422823,0.19702 -0.79548,0.56808 -1.111328,1.04688 -0.631696,0.95759 -1.009921,2.32448 -1.493077,4.60704 -0.483156,2.28256 -1.027027,6.12603 -3.432751,9.2096 -1.112675,2.46553 -3.220172,4.40308 -5.998047,4.96093 -4.438382,0.96958 -8.5289751,-3.05128 -8.4492181,-7.4082 -0.4090854,-5.57433 4.8046391,-8.96475 8.4179681,-12.10352 0.583871,-0.71584 0.772343,-1.48804 0.689453,-2.28125 -0.08364,-0.80035 -0.458255,-1.33436 -1.317353,-3.36648 -0.859098,-2.03213 1.506764,-5.37526 4.272428,-6.59838 1.456156,-0.66233 3.060587,-1.56801 4.234375,-2.7539 0.782526,-0.7906 1.371677,-1.69795 1.707901,-2.75603 0.336224,-1.05809 0.678188,-2.21214 0.694518,-3.29473 0.01564,-1.03661 -0.260522,-1.98698 -1.048828,-2.78515 -2.01878,0.11087 -4.667027,0.26501 -6.095703,-1.28125 -0.378572,-0.40973 -0.659527,-0.92378 -0.841183,-2.05609 -0.181657,-1.13231 -0.567911,-3.08606 -0.320961,-4.6431 -0.106987,-0.26159 -0.225164,-0.46336 -0.347657,-0.5918 -0.132955,-0.1394 -0.266638,-0.21822 -0.421875,-0.26562 -0.310472,-0.0947 -0.733271,-0.0444 -1.222656,0.10156 -0.489385,0.14601 -1.032638,0.37655 -1.582031,0.57031 -0.523553,0.18465 -1.10482,0.34671 -1.640625,0.31641 -3.1769371,0.50245 -5.9482768,-2.9522 -5.1699216,-6.222662 0.2548127,-4.201479 3.6336006,-8.1359 6.0997756,-10.133099 2.466175,-1.997198 3.085851,-2.438645 4.193727,-3.079336 1.107876,-0.640692 1.217652,-0.732049 1.380326,-0.842338 -0.160151,0.004 -0.336058,0.01296 -0.537109,0.03711 -0.388696,0.04669 -0.828857,0.12977 -2.440772,0.49353 -1.611916,0.363759 -4.392335,-1.229764 -4.385435,-4.128249 -0.148444,-1.736126 0.61372,-3.221093 1.605469,-4.568359 0.985902,-1.339324 2.204646,-2.566106 3.083984,-3.804688 1.260244,-2.532847 0.718383,-6.174255 -2.285478,-7.303561 C 11.023154,60.680391 7.5147929,59.072133 5.7460451,55.722634 4.1812313,53.050308 3.7672957,48.849288 5.3082102,45.435653 c 1.5409145,-3.413635 5.6557368,-5.661389 9.7939658,-5.087398 4.138229,0.573991 8.339748,0.365669 10.433653,-2.015941 2.093905,-2.38161 2.733865,-4.556467 2.540298,-6.685825 -0.193567,-2.129357 -1.218539,-4.196501 -2.663572,-5.482954 -1.445033,-1.286454 -2.557184,-2.201026 -3.705569,-3.091269 -1.707512,-1.323687 -3.517801,-2.610009 -5.167969,-4.533204 -2.912705,-2.815329 -4.739389,-7.046751 -4.21425,-10.4954891 0.525139,-3.448738 2.719686,-6.1265872 5.940858,-7.08849477 0.371332,-0.29007092 0.814921,-0.43581146 1.216797,-0.51953125 0.450331,-0.0938141 0.8757,-0.1536332 1.352719,-0.28598427 0.477019,-0.13235107 1.047957,-0.18809706 3.267152,-0.17462227 2.219195,0.01347479 5.950237,3.03667126 8.010858,5.92721176 2.060622,2.8905406 3.364501,6.0521789 4.272276,8.5775009 0.907775,2.525322 1.542343,3.992578 2.487602,5.830867 0.948171,1.843954 2.143697,3.499299 4.279089,4.924303 2.135391,1.425004 5.036139,-1.204441 5.144152,-3.579758 0.108013,-2.375318 -0.1595,-4.926364 0.03185,-7.303497 0.192848,-2.395707 0.870714,-4.6302844 3.597587,-5.9911821 2.726873,-1.3608977 5.307827,0.6708395 6.458013,2.0845321 1.150187,1.413693 1.699511,2.105801 2.23433,2.709949 0.977573,1.104295 1.89344,1.860542 2.91711,1.917431 z"
       id="path58"
       sodipodi:nodetypes="scsccccscccscssccsccccccsscscssscscscccsccscsscccsccscscccscscscccsccscscsscscsssccccscccscsscccscscscscscsssccccscscsccsscsccssccscscccccccccccccccccccccccccccccccccccccccccccccccccccccccccccccccccccccccccccccccccccccccccccsccscccs" />
  </g>
  <g
     inkscape:groupmode="layer"
     id="layer2"
     inkscape:label="gray0"
     style="display:inline"
     inkscape:highlight-color="#0e0e0e"
     transform="translate(9.2841172e-4,0.07974436)">
    <path
       style="display:inline;fill:#0e0e0e;fill-opacity:1"
       d="m 20.8,0.50686668 c 4.502805,-0.9158658 7.889689,2.17393092 10.88,5.44000002 1.483,2.9155223 3.424089,5.6412973 4.32,8.8000003 1.762038,3.661034 2.762982,8.117961 6.72,10.56 2.61698,1.852145 5.854465,-0.993684 5.76,-3.84 0.617185,-4.408233 -1.083358,-10.214691 3.2,-12.8000003 2.908592,-1.2297503 5.334328,0.6838641 7.04,2.8800003 1.730454,1.818513 3.521452,5.016933 6.4,3.52 2.918916,-0.929353 3.455744,-4.425633 4.96,-6.5600003 1.163357,-2.6009543 3.025829,-5.1985952 5.76,-6.4 2.88897,-1.33619671 6.882392,-1.0244756 9.44,0.8 3.180946,2.1559428 4.515414,5.7591634 5.12,9.2800003 1.168983,0.546057 1.375156,-2.5563347 1.76,-3.6800003 1.569794,-1.9722447 3.584304,-3.7948322 6.08,-3.52 3.73625,0.5651538 5.66064,4.5446257 5.76,8.0000003 0.11815,3.225273 -0.57864,7.253758 2.08,9.12 3.1858,0.350417 4.32228,-4.246657 7.2,-4.64 1.854,-0.48266 3.95088,-0.204515 5.28,1.12 2.09394,-2.404947 1.80453,-5.797108 4,-8.16 1.62946,-3.1100604 4.75562,-5.9846765 7.84,-7.5200003 2.98632,-1.0643717 7.36502,-1.3764529 9.44,1.76 2.83979,2.7359103 3.16657,6.8443723 2.72,10.7200003 -0.34242,3.261894 -2.17995,6.193674 -4.96,8.16 -2.7375,1.863437 -7.02277,3.582828 -6.72,7.68 1.38279,3.545026 6.33398,3.627555 9.44,2.4 3.51524,-1.20313 6.01728,-4.852324 9.92,-5.12 3.26367,-0.864087 3.01147,4.722185 6.24,3.36 4.24272,-2.04565 7.56007,-6.325351 11.36,-9.44 1.69452,-2.311914 4.3922,-3.806727 6.4,-6.08 2.41155,-1.282457 5.43139,-3.859259 8.32,-1.92 3.32995,1.539034 2.24696,6.22883 -0.16,8.16 -1.2187,1.951004 -3.61103,3.022698 -5.28,4.64 -3.00978,1.481721 -5.90242,3.246233 -9.28,3.84 -2.65721,1.065338 -5.85116,1.924438 -7.52,4.64 0.36584,2.515594 3.45319,2.054338 5.28,1.76 3.36644,-0.313602 6.50467,-1.178156 9.76,-1.76 4.09988,-0.668256 9.13156,-0.936069 12.96,0.48 2.50171,0.977692 4.78111,4.450246 2.08,6.56 -3.14283,2.119857 -7.68624,2.10081 -11.36,1.12 -2.86586,-0.285709 -5.90397,-1.17771 -8.64,0 -1.72417,0.2648 -2.92087,1.803025 -4.64,2.08 -1.6921,1.880595 -4.44677,3.157384 -6.88,4 -2.08337,0.372185 -4.16796,0.185497 -6.08,-0.64 -1.39655,-1.055747 -3.13778,-1.279373 -4.64,-2.08 -3.09858,-1.390224 -7.41057,-1.67405 -10.4,0.16 -2.05099,1.217864 -3.39227,3.993559 -2.72,6.24 1.13813,2.652451 4.07348,3.495709 6.72,3.84 2.29396,0.327641 4.45659,0.972343 6.56,1.76 4.73642,1.038066 10.79634,-1.119065 14.24,3.04 1.29202,2.552388 -0.77727,5.507512 -3.68,4.96 -3.88201,0.20273 -6.81507,-1.885521 -10.4,-2.4 -4.14645,-0.759614 -7.6049,1.497996 -11.68,1.44 -1.5636,1.630685 -3.51686,-0.554233 -5.28,-0.48 -3.92929,-1.49645 -6.8531,-5.420378 -10.4,-7.84 -1.64592,-1.009557 -4.5205,-1.482606 -4.96,1.12 0.52403,3.0166 -1.79066,5.696993 -4.96,4.96 -4.15357,2.119633 -3.88825,8.70808 0,10.88 2.49463,1.583589 6.07543,1.257436 8,3.52 2.39472,2.755744 1.76687,7.353616 -1.28,9.6 -2.17818,1.539341 -5.0332,1.431191 -7.36,0.32 -3.10664,-1.359123 -4.8268,-5.227102 -8,-6.72 -2.12048,-0.781941 -3.728368,1.120608 -2.08,2.72 1.59635,1.978928 3.2764,4.853207 1.6,7.36 -1.01486,1.254952 -2.23637,3.53571 -0.32,4.8 1.42101,1.919097 3.90928,3.16997 5.76,4.799993 1.97267,1.69032 4.04073,4.30737 1.44,6.24 -4.14151,0.69888 -5.57854,-3.62349 -8.16,-5.92 -1.505436,-2.265516 -4.13468,-4.604646 -6.72,-4.479993 -3.113304,1.478637 -0.892112,5.240753 1.12,6.879993 3.038761,3.03293 5.91919,6.13145 7.52,9.76 0.93463,3.39364 0.39407,8.26955 -3.52,8.96 -3.263987,0.53248 -6.463529,-2.19218 -7.68,-5.12 -2.120947,-2.82164 -2.705513,-6.74013 -5.92,-8.8 -1.743184,-1.36327 -4.363327,0.0288 -4.48,2.24 -1.231556,4.29653 3.905267,6.85595 2.56,11.2 -0.695874,2.44058 -3.801627,1.71034 -4.48,-0.32 -1.0849,-2.60733 -0.0097,-7.00976 -3.52,-8 -2.658159,-1.45026 -3.43021,-4.26107 -5.12,-6.4 -0.958695,-2.43037 -3.568411,-4.48498 -6.4,-3.84 -4.287361,1.61945 -3.855889,7.59554 -2.4,11.04 1.271701,3.5105 2.845437,6.89589 3.36,10.72 0.367917,3.38813 0.455208,6.89249 2.08,9.76 0.92108,3.31743 3.284641,6.03736 4,9.44 0.992821,2.76383 1.775693,7.54795 -1.28,9.28 -3.269106,0.55528 -4.489151,-3.19898 -5.12,-5.44 -0.699742,-3.05565 -0.633364,-6.42863 -1.44,-9.44 -0.485676,-3.38575 -2.22988,-6.2502 -5.12,-8.64 -1.350097,-2.17214 -1.403023,-4.88159 -2.4,-7.2 -0.87294,-2.16012 -3.014122,-0.72189 -3.52,0.96 -1.921615,3.1707 -1.714769,7.78228 -0.8,11.36 1.155162,3.7538 2.688863,7.35081 4,11.04 1.254391,3.4659 1.429501,7.37886 1.44,11.36 -0.425108,2.03406 -0.884315,4.44655 -2.72,5.6 -2.069348,2.41037 -5.287287,0.0623 -6.08,-2.24 -1.461155,-2.93912 -0.448105,-6.41828 0.16,-9.44 0.691843,-3.57986 1.094715,-8.05903 0.16,-11.68 -0.645737,-1.96521 -1.658678,-5.53504 -4.32,-5.28 -3.205038,1.88699 -3.698837,5.71986 -4,9.12 -0.407802,2.76892 0.465512,5.5725 0.64,8.32 0.34291,3.5302 1.199802,7.19634 0.64,10.88 -0.451123,3.45497 -2.382998,6.29659 -3.2,9.6 -1.126836,3.79456 0.159114,8.58852 -1.12,12.32 -0.549574,2.32894 -1.430913,5.34858 -4,6.24 -1.438834,-0.86268 -3.410082,-1.22756 -3.36,-3.36 -1.355451,-3.20327 -0.261527,-7.03135 0.32,-10.24 1.499385,-3.44883 0.957181,-8.08734 0.8,-12 -1.448123,-2.41933 -5.689286,-2.23414 -5.92,-5.6 -0.850788,-3.0914 0.256885,-6.31702 1.12,-9.12 1.607735,-3.38425 2.781546,-6.94823 3.84,-10.56 0.363439,-2.42467 1.362827,-6.07649 -0.48,-8.16 -2.812902,-0.96085 -3.954305,2.68174 -4.32,4.64 -0.795678,3.64519 -1.328038,7.39945 -3.68,10.4 -1.059976,2.39321 -3.09477,4.26477 -5.76,4.8 -4.197868,0.91698 -8.0828562,-2.90932 -8,-7.04 -0.4114602,-5.37757 4.653534,-8.64906 8.32,-11.84 1.316636,-1.5924 0.894224,-3.58453 -0.32,-5.12 -1.010432,-3.00248 1.211854,-5.8777 3.84,-7.04 2.469908,-1.12339 5.38251,-2.92879 6.08,-5.76 0.811814,-2.07324 1.432347,-4.76516 -0.48,-6.56 -2.607861,0.14102 -5.971281,0.37039 -6.72,-2.56 -0.203234,-1.69118 -0.60336,-3.61815 -0.32,-5.12 -1.017856,-2.674144 -3.737884,-0.0317 -5.6,-0.16 -2.9142381,0.50889 -5.5259419,-2.709759 -4.8,-5.759993 0.2198452,-4.086319 2.905723,-7.151173 5.92,-10.08 1.891911,-1.038095 3.135413,-2.280322 4.96,-3.36 2.581274,-1.306306 0.331245,-1.244091 -1.44,-0.8 -2.602521,0.577987 -5.139515,-0.878554 -5.12,-3.52 -0.284366,-3.221028 2.824584,-5.589171 4.64,-8.16 1.359892,-2.702963 0.782997,-6.603492 -2.24,-8 -3.200794,-0.959002 -6.6124171,-2.52633 -8.32,-5.76 -1.5158746,-2.576381 -1.9135705,-6.663179 -0.48,-9.44 1.5073822,-3.763516 5.469945,-5.938612 9.6,-5.44 4.036384,0.637746 8.410134,0.434047 11.2,-2.88 3.171426,-3.323087 2.673899,-9.140985 -1.12,-12 -2.631658,-2.968129 -5.766465,-4.344133 -8.48,-7.52 -2.833383,-2.738659 -4.177317,-6.094268 -4,-10.0800003 0.843202,-2.6768015 2.544975,-5.9854202 5.6,-6.8800001 0.624545,-0.57576551 1.664953,-0.49498651 2.4,-0.79999992 z M 33.44,188.50686 c 1.497347,-2.24906 1.985442,-4.91616 2.24,-7.68 0.472587,-4.06555 -0.394479,-8.68601 1.12,-12.32 0.805456,-2.83621 1.521121,-6.01928 0.85875,-9.03813 -0.840017,-4.2646 -1.222907,-8.7105 -1.05375,-13.39312 0.570393,-2.51114 1.029801,-5.68472 0.785,-7.65875 0.67355,-2.14786 1.488478,-5.42207 1.97,-7.67 1.364412,-2.72319 5.08056,-4.16219 7.2,-1.44 0.874378,-0.85722 -0.418799,-3.50043 0.48,-4.96 0.321744,-2.78449 2.23973,-4.68764 4.64,-6.24 1.912688,-1.60627 4.000481,-0.42529 5.635,2.1775 1.06942,1.75616 0.831583,4.93212 3.325,5.5025 2.244197,-1.32416 0.708655,-4.75206 0.32,-6.72 -1.091003,-2.69517 -2.033585,-5.83792 -2.56,-8.96 -0.401907,-2.79488 0.711824,-5.48487 1.81875,-7.875 2.246701,-2.871704 6.001355,-3.586692 9.06125,-1.725 2.973327,2.38474 3.037507,5.32415 6.001875,6.17375 0.897523,0.15415 1.356876,-0.66651 1.692356,-1.24355 0.739934,-1.2727 0.964676,-2.94295 2.818894,-3.2127 2.465889,-1.24032 5.185065,0.99862 7.566875,-1.5575 0.240212,-2.987858 -1.347673,-5.760224 0.21875,-8.499368 0.865541,-2.8306 3.887899,-3.257264 6.50125,-3.660625 2.741882,-0.620027 2.506853,-3.925341 1.28,-5.76 -1.021804,-2.387828 -1.447975,-6.775774 1.6,-8 1.880679,-1.239257 4.4586,-0.808189 5.92,1.12 2.00905,-0.02613 2.00869,-2.343483 0.8,-3.36 -0.29778,-2.81564 -1.76483,-5.492829 -1.12,-8.48 0.34513,-3.012798 3.63159,-4.39371 6.4,-5.12 2.2386,-0.628861 3.57323,-2.727909 4.16,-4.8 2.0065,-2.860158 5.46501,-3.399294 8.48,-2.4 2.53587,1.215757 5.04225,3.051278 6.88,5.28 1.11708,0.969058 3.02705,2.540358 3.7075,1.56875 -2.53934,-1.962939 -3.11858,-4.697372 -3.57062,-7.473125 0.39423,-2.525901 1.43427,-5.249183 3.62562,-7.09875 2.91423,-2.227427 5.70707,-3.265583 9.26375,-3.93375 2.19018,-0.309581 3.7466,0.470966 5.58812,0.585625 3.29838,0.935822 6.42271,2.964372 9.86563,3.55125 1.74401,0.117928 5.35864,-0.831968 4.16,-2.88 -1.71021,-1.222773 -2.7474,-1.180382 -4.15562,-3.000625 -1.19227,-1.361088 0.7196,-3.93109 -0.32438,-4.679375 -1.10342,1.056208 -3.98854,2.632124 -4.42125,0.44875 0.76536,-2.431395 -1.38793,-4.526416 -3.68813,-3.500625 -2.71318,0.686297 -3.6929,3.198197 -6.13062,3.851875 -1.94908,1.160257 -4.30639,1.334958 -6.56,1.76 -3.57052,1.494832 -8.99349,0.719346 -10.56,-3.2 -1.66337,-2.540779 -1.3853,-6.259275 0.8,-8.48 1.5824,-2.544516 5.3192,-3.233838 7.84,-4.96 3.11101,-2.211473 5.46414,-5.287919 4.96,-9.28 1.5771,-3.2087067 -2.38202,-6.5408381 -5.6,-5.7600003 -3.53177,0.5355664 -6.2682,3.322204 -8.44,5.9600003 -1.04776,1.223936 -2.33151,3.835402 -2.27,4.59 -1.27787,1.712416 -1.58408,4.567882 -3.69,5.77 -1.47303,0.727671 -1.59448,-1.726738 -3.52,-1.6 -4.35592,-0.608057 -5.64597,6.563719 -10.24,4.48 -3.11764,-1.965821 -2.80109,-6.398933 -3.04,-9.76 C 102.79027,10.489801 99.143757,5.5023528 95.52,8.0268667 92.516046,10.088765 92.187432,13.66002 91.822097,16.632187 88.727294,18.568001 88.831481,13.758376 88.36,11.986867 87.933615,6.9652693 82.862774,1.9382766 77.6,3.8668667 72.679764,5.2097895 71.540448,10.894069 69.12,14.586867 c -1.968424,2.78776 -6.293753,4.430997 -8.84,1.48 -2.768606,-1.582707 -3.927745,-6.9633583 -8,-5.2 -2.618881,2.271834 -2.049064,6.348643 -1.72,9.48 -0.107026,3.094216 -1.447884,6.935068 -4.96,7.52 -5.787006,0.24939 -9.017378,-5.838329 -10.56,-10.56 C 32.573956,12.004824 30.589332,5.5432935 24.76,2.9468667 19.909672,1.0335775 13.967387,5.0997556 14.72,10.426867 c 0.737807,5.451823 6.087923,8.506313 9.8,11.96 4.808564,3.351323 6.873533,9.428905 4.92,13.96 -1.628057,4.765321 -6.922711,6.841956 -11.68,6.24 -3.722203,-0.304446 -8.2436763,-0.160326 -10.04,3.72 -2.4618713,4.139006 -0.2755691,9.669861 3.96,11.64 3.668632,0.936864 8.022065,3.714468 7.52,8.16 0.50733,3.699622 -2.434617,6.391619 -4.48,8.96 -1.859049,2.038728 0.216465,5.201382 2.88,3.84 2.154099,-0.383916 5.285723,-2.917451 6.68,0.04 -0.167192,3.31873 -4.399687,3.979319 -6.56,5.84 -3.764352,2.255565 -7.257971,5.974291 -7.8,10.44 -0.8611736,2.700405 2.155009,4.807623 4.36,3.08 2.736018,-1.797615 6.451908,0.700553 5.88,3.959993 -0.217385,2.21059 0.32829,5.4782 3.36,4.64 4.073505,-0.95146 5.758885,4.16779 4.64,7.2 -0.713161,4.84943 -5.291008,7.76061 -9.28,9.92 -2.776603,1.78203 -0.380285,4.78564 0,7.04 -0.686442,5.89833 -9.5192631,7.2916 -8.96,13.76 -0.6498352,4.06372 4.630653,7.01717 7.68,4.16 4.779203,-4.11205 4.628046,-10.76449 7.04,-16 1.426471,-3.15476 5.678872,-4.15167 7.32,-0.92 1.54062,4.26471 0.291332,8.93398 -0.96,13.04 -1.789597,3.86479 -4.095988,8.19673 -4.07,12.19 -0.395332,0.51234 -0.760306,3.01515 0.66,3.73313 1.280519,1.72181 3.052495,-1.72358 5.21,-1.00313 0.803419,0.56546 1.495357,1.37214 1.12,2.08 0.649147,1.76018 -1.343401,3.38383 -0.64,5.44 0.383473,3.94034 -0.4772,7.59962 -1.6,11.2 -0.462664,2.0898 -1.066092,5.53335 -0.28,7 -0.23152,0.95108 0.33319,3.14891 2.04,2.76 z m 19.2,-26.24 c 1.67817,-0.14254 1.392762,-2.64485 1.43,-2.87 1.464723,-2.24864 0.257072,-5.64368 0.01,-8.17 -0.564215,-1.39541 -0.736078,-4.54041 -2.88,-4.16 -0.626693,0.91152 -1.147342,3.19764 -1.04,3.76 -0.658796,3.03629 -1.746867,7.06653 -0.08,10.16 0.642882,0.8538 1.542622,1.18471 2.56,1.28 z m 16.96,-10.24 c 1.201465,-2.51228 0.251448,-5.6527 -1.28,-7.68 -1.93677,-1.76905 -2.391692,0.99754 -2.08,2.72 0.529706,1.68487 0.879532,5.0227 3.36,4.96 z m 26.88,-34.88 c 2.967226,-1.24484 2.122789,-5.55635 -0.179375,-7.08688 -1.180002,-2.25178 -5.149639,-1.79819 -4.460625,1.16688 0.07809,2.66456 2.120188,5.28674 4.64,5.92 z M 112.8,84.826867 c 2.06623,-0.345747 2.73164,-2.901948 0.96,-4.16 -2.33804,-1.771672 -4.99653,-2.769714 -7.36,-4.48 -1.40945,2.4313 0.73691,4.856939 2.24,6.72 1.34808,0.687355 2.49244,1.997164 4.16,1.92 z m 47.68,-19.52 c 2.28689,-1.740702 -0.77668,-3.9697 -2.56,-3.84 -2.19236,-1.398728 -2.48605,1.027924 -0.8,2.08 0.88282,1.091547 1.64174,2.105131 3.36,1.76 z m 25.28,-23.68 c 2.8276,-0.496646 1.65238,-3.891278 -0.68,-4.12 -2.1933,0.201486 -4.46464,-0.455607 -6.48,-0.16 -0.71331,1.401845 -4.01253,1.024599 -4.42,1.8 -0.96801,-0.103069 -4.59032,0.441259 -3.46,1.2 3.08841,0.589413 6.34957,0.761738 9.6,0.96 1.88007,0.788524 3.26787,0.04052 5.44,0.32 z m -23.68,-10.56 c 3.4537,-1.653384 7.18152,-2.645008 10.56,-4.48 2.91323,-1.626302 5.90765,-3.849202 8,-6.72 1.77816,-2.252311 -1.65306,-4.693416 -3.56,-2.92 -2.38197,1.3661 -4.83022,3.732589 -6.44,5.32 -2.23451,1.292162 -4.41893,4.47695 -6.8,6.08 -0.3691,0.814481 -4.06703,2.43745 -1.76,2.72 z"
       id="path3"
       sodipodi:nodetypes="cccccccccccccccccccccccccccccccccccccccccccccccccccccccccccccccccccccccccccccccccccccccccccccccccccccccccccccccccccccccccccccccccccccccccccccccccccccccccccsccccccccccccccccccccccccccccccccccccccccccccccccccccccccccccccccccccccccccccccccccccccccccccccccccccccccccccccccccccc" />
    <path
       style="display:inline;fill:#0e0e0e;fill-opacity:1"
       d="m 136.96,72.56482 c 2.61906,-0.843497 7.11354,0.92357 5.44,4.16 -2.23627,2.215033 -6.32228,-0.211662 -6.72,-2.88 -0.0612,-0.63766 0.86244,-1.093757 1.28,-1.28 z m 3.68,4 c 2.52203,-1.217946 -1.34952,-4.253021 -2.72,-2.72 -1.9376,0.716491 1.51737,3.444212 2.72,2.72 z"
       id="path28" />
    <path
       style="display:inline;fill:#0e0e0e;fill-opacity:1"
       d="m 114.24,67.76482 c 3.10815,-1.609014 4.9369,5.224118 1.12,4.64 -2.42087,0.538474 -3.5795,-3.977513 -1.12,-4.64 z m 1.76,3.68 c 2.01389,-1.561188 -1.45694,-4.382841 -2.08,-1.76 -0.0191,1.184014 0.74072,2.116235 2.08,1.76 z"
       id="path22" />
    <path
       style="display:inline;fill:#0e0e0e;fill-opacity:1"
       d="m 120.64,64.56482 c 1.68492,-0.632452 3.46048,0.923607 4.32,2.08 1.68897,1.93609 -0.89086,4.633952 -2.88,3.52 -2.36111,-0.511043 -4.67978,-4.235197 -1.44,-5.6 z m 2.72,4.96 c 2.46348,-1.445129 0.2791,-3.9219 -1.6,-4.16 -2.27876,-0.0029 -1.91071,2.910453 -0.16,3.36 0.46778,0.644437 1.15301,0.483716 1.76,0.8 z"
       id="path20" />
    <path
       style="display:inline;fill:#0e0e0e;fill-opacity:1"
       d="m 24.32,168.56481 c 2.612313,-0.70747 1.274731,3.47194 1.6,5.12 0.758484,2.63955 0.119483,5.72785 -1.44,7.84 -1.369392,1.41833 -3.998794,1.08453 -4.32,-1.12 -0.39803,-3.94461 1.626219,-6.88587 3.04,-10.08 0.657818,-0.46421 0.564538,-1.25503 1.12,-1.76 z m -2.04,12.6 c 3.814577,-1.28457 2.807511,-6.17527 3,-9.4 0.452753,-2.42432 -1.177315,-2.6657 -1.64,-0.36 -1.224275,2.78339 -4.235634,7.16938 -1.36,9.76 z"
       id="path49" />
    <path
       style="display:inline;fill:#0e0e0e;fill-opacity:1"
       d="m 88,126.64481 c 2.098107,-0.8109 3.44329,1.51071 5.12,2.24 1.133363,2.25138 3.757428,4.74712 2.08,7.52 -2.203158,2.47277 -6.231496,0.1384 -6.72,-2.56 -1.465819,-1.79357 -2.828932,-4.45017 -1.6,-6.72 0.430712,0.008 0.731097,-0.35994 1.12,-0.48 z m 4.96,9.12 c 2.038454,-1.28715 -0.196035,-3.86169 -1.12,-5.28 -0.742937,-1.20336 -2.27718,-2.71644 -3.52,-2.88 -1.336333,1.19591 0.03824,3.44224 0.96,4.8 0.214753,1.64746 1.762913,3.65661 3.68,3.36 z"
       id="path41" />
    <path
       style="display:inline;fill:#0e0e0e;fill-opacity:1"
       d="m 64,112.56481 c 2.40258,-0.87743 4.54155,2.19291 3.84,4.48 -0.455114,2.90333 -4.431237,0.70509 -4.32,-1.44 -0.375833,-0.91756 -0.227632,-2.3618 0.48,-3.04 z m 2.72,4.96 c 1.31203,-1.50866 -0.276213,-4.99666 -2.4,-4.32 -0.889629,1.72588 0.04717,4.63746 2.4,4.32 z"
       id="path38" />
    <path
       style="display:inline;fill:#0e0e0e;fill-opacity:1"
       d="m 12.16,106.48481 c 2.387236,-0.74755 3.223802,2.86856 2.24,4.48 -0.380287,2.2687 -4.108853,3.92534 -5.12,1.28 -1.1918949,-2.28071 0.987106,-4.64095 2.88,-5.76 z m -0.48,5.92 c 2.193856,-0.55419 3.563628,-5.05876 0.48,-4.96 -2.047546,0.54994 -3.596821,5.03459 -0.48,4.96 z"
       id="path34" />
    <path
       style="display:inline;fill:#0e0e0e;fill-opacity:1"
       d="m 2.763125,68.08482 c 3.3913417,-1.482698 5.4106895,3.820281 2.4,5.6 -2.2073999,2.144611 -5.9381166,-1.15807 -4.32,-3.68 0.141596,-0.765238 1.2754206,-1.642777 1.92,-1.92 z m 1.12,4.96 c 2.6648393,-0.573824 1.4917311,-5.631769 -1.24,-3.8 -1.4666688,1.046982 -1.1814566,4.487319 1.24,3.8 z"
       id="path23" />
  </g>
  <g
     inkscape:groupmode="layer"
     id="layer3"
     inkscape:label="gray1"
     style="display:inline"
     inkscape:highlight-color="#3c3c3c"
     transform="translate(0,0.45472276)">
    <path
       style="display:inline;fill:#3c3c3c;fill-opacity:1"
       d="m 133.16312,19.511867 c -2.93148,1.222868 -6.66745,2.735186 -8.03937,5.736875 -1.97858,2.816178 -0.85731,6.846553 1.245,9.291875 1.12368,1.155919 2.94543,1.698555 4.24273,1.953024 1.83952,0.360829 3.22461,0.0633 5.2429,-0.567399 3.50978,-0.32456 6.7861,-1.556658 9.10562,-3.079375 1.31009,-1.83204 3.74028,-3.182281 5.95062,-2.415625 1.95315,1.127911 0.99191,2.763969 1.24938,4.175625 1.77067,1.089586 3.45608,-0.377282 4.50687,-1.041875 0.33839,0.841434 -0.10163,1.33291 -0.24687,3.553125 0.48021,2.706199 4.89777,2.992919 4.84812,4.78625 -1.46965,2.213102 -4.85098,1.809393 -7.38312,0.881875 -3.12791,-1.134051 -5.85065,-2.932625 -9.63125,-3.16125 -2.00538,-0.824381 -4.04523,0.308491 -6.49375,0.741875 -2.71639,1.147019 -5.44267,2.469049 -7.52,4.96 -0.8478,2.369492 -2.51975,4.95047 -1.44,7.52 0.39971,2.165018 1.32398,3.782413 3.20375,5.334375 -1.84749,0.185859 -2.75503,-1.195777 -3.77687,-2.31 -1.6402,-1.97175 -4.66184,-3.845101 -7.02875,-4.811875 -2.95728,-0.785519 -6.29945,-0.114265 -8.21876,2.575625 -0.65028,2.804728 -2.67686,4.774655 -6.05624,5.33125 -2.86937,1.142863 -5.00184,2.841775 -4.71063,6.075 0.0231,2.22819 0.91354,4.994411 1.24875,7.165625 1.36408,0.961571 1.25031,3.347242 -0.72562,2.79375 -2.18871,-2.92744 -7.267482,-1.347711 -8.312505,1.928125 -0.446096,3.07236 0.580728,5.418769 1.584375,7.890625 0.310404,2.934576 -2.430295,3.260788 -4.65125,3.660625 -3.790992,0.659244 -5.535703,5.26784 -4.44125,8.67125 0.528118,3.516648 0.275894,3.898978 -3.0125,4.292508 -3.971249,-0.4861 -5.777671,0.009 -7.2625,3.88312 -2.03002,2.65676 -3.78802,-1.40784 -4.96,-2.72 -1.727179,-3.042594 -5.685822,-4.652517 -8.815625,-3.133753 -3.009422,1.217843 -3.985754,4.310273 -4.679375,7.566873 -0.368904,2.99762 0.534371,5.55124 1.14375,7.90251 1.090305,3.01877 2.538757,5.2225 2.255625,9.13124 -1.172143,2.32686 -2.548087,0.12979 -3.235,-1.83749 -0.507527,-2.49537 -2.950111,-6.59889 -6.13875,-4.99938 -0.801998,-0.3809 1.223147,-2.45725 0.869375,-3.71 -0.824302,-3.49175 -5.025337,-6.04323 -3.64,-10.12 0.626345,-3.791717 3.998719,-6.269719 7.52,-7.200003 3.812073,-1.932211 4.301774,-6.841664 7.32,-9.64 1.330526,-1.8038 2.743319,-5.778818 5.6,-3.6 3.252031,2.204522 2.383097,6.405216 2.16,9.68 0.195196,3.350336 5.047844,3.648636 5.76,0.4 2.201998,-4.223402 0.799446,-10.277815 -3.72,-12.36 -4.25757,-1.865199 -5.272012,-9.237949 -0.64,-11.2 2.093064,-0.704829 4.75107,1.923286 6.24,-0.16 0.904167,-2.294356 -2.245319,-5.253272 0.52,-7.16 2.777968,-2.035704 4.878284,0.903221 6.88,3.92 2.939471,3.770243 10.087844,1.144821 9.24,-3.8 -0.467771,-3.367871 -5.651541,-5.113642 -3.84,-8.96 0.413267,-2.501345 2.98788,-4.446781 5.32,-2.76 2.143254,-0.265263 4.18837,0.05369 4.56,2.48 1.39204,3.682671 7.25666,2.307403 7.88,-1.48 0.77448,-3.664761 5.13429,-3.752969 8,-2.88 2.44763,0.750707 6.17723,0.869935 7.2,-2.08 0.68534,-3.87208 -3.81924,-5.288388 -6.88,-4.64 -3.09109,0.254241 -5.30606,2.338127 -8.32,2.88 -3.23732,0.825502 -6.1055,-2.042681 -5.28,-5.28 1.46944,-3.327275 5.32415,-0.909457 7.84,-0.8 4.32656,0.06384 7.57547,-6.941952 3.16,-9.24 -2.84357,-1.623317 -4.67559,1.540098 -6.68,2.84 -3.21549,-0.993784 -4.06661,2.727315 -6.36,3.8 -1.54949,-0.146555 -3.227773,-0.12952 -3.04,-2.32 0.4492,-3.75264 4.0669,-6.380326 7.64,-6.76 2.02952,-1.33358 4.45536,-2.279451 6.88,-1.44 2.67883,-0.235592 2.77293,-3.554119 3.58312,-4.965625 0.31943,0.163099 2.10122,-0.424071 2.40317,-1.539132 1.03975,-1.105489 1.82612,-4.147581 2.48809,-4.392743 3.06926,-2.063048 3.49649,-2.301414 4.75305,-3.680463 1.679,-1.8426648 3.57071,-3.1357028 5.51926,-3.331939 1.88737,-0.190074 5.05834,0.2997918 5.53732,2.696918 0.47898,2.397127 -1.64028,6.389015 -5.52089,9.077984 M 120.2,35.926867 c -1.48355,0.844168 -2.34548,4.667401 1.46968,4.585318 3.81515,-0.08208 1.90332,-6.672023 -1.46968,-4.585318 z m -56.96,61.36 c 2.575982,-0.529372 2.684817,-4.833894 -0.2,-4.6 -2.210876,0.778214 -2.121371,4.003453 0.2,4.6 z"
       id="path7"
       sodipodi:nodetypes="cccscccccccccccccccccccccccccccccccccccccccccccccccccccccccccccccccccsssccccccc" />
    <path
       style="display:inline;fill:#3c3c3c;fill-opacity:1"
       d="m 176.32,19.726867 c 1.6519,-0.852927 3.94925,1.402058 1.7379,2.278058 -2.31275,1.939408 -4.67723,3.899435 -7.3379,4.998874 -3.1143,1.122705 -5.8759,2.49336 -9.01483,3.542097 -0.0454,-1.53178 1.4879,-1.105411 2.31611,-2.547728 2.26305,-1.107496 4.85818,-5.594404 7.15227,-6.090175 1.71902,0.724179 3.17428,-1.582873 5.14645,-2.181126 z"
       id="path10"
       sodipodi:nodetypes="ccccccc" />
    <path
       style="display:inline;fill:#3c3c3c;fill-opacity:1"
       d="m 179.42056,38.606867 c 1.91781,-0.477024 5.03765,0.514676 4.15911,2.431126 -0.92536,0.282463 -1.46775,0.100214 -3.12898,-0.216352 -1.69606,-0.323204 -5.15886,-0.306661 -6.37601,-0.488327 -1.18894,-0.177847 -5.32981,-0.59195 -2.42742,-1.114273 1.36324,-0.39174 1.85756,-0.435917 3.24379,-0.242659 1.78272,-0.221438 3.01794,-0.287716 4.52951,-0.369515 z"
       id="path15"
       sodipodi:nodetypes="ccscccc" />
    <path
       style="display:inline;fill:#3c3c3c;fill-opacity:1"
       d="m 156.23063,61.069367 c 0.28133,-0.0047 0.7689,-0.128596 1.67693,0.06233 1.91519,0.402698 2.51208,0.573191 3.29431,2.208919 -0.45747,2.788495 -3.03278,1.399011 -3.98437,-0.261875 -0.70833,-0.551212 -0.9802,-1.057694 -0.98687,-2.009374 z"
       id="path19"
       sodipodi:nodetypes="csccc" />
    <path
       style="display:inline;fill:#3c3c3c;fill-opacity:1"
       d="m 121.13188,65.182805 c 1.84294,-0.649891 4.49359,2.283901 2.38812,3.793125 -1.38898,0.08298 -4.94892,-2.333126 -2.38812,-3.793125 z"
       id="path21"
       sodipodi:nodetypes="ccc" />
    <path
       style="display:inline;fill:#3c3c3c;fill-opacity:1"
       d="m 114.66156,68.36718 c 2.57937,-0.245385 2.45722,3.995064 -0.24593,2.314062 -0.48717,-0.721737 -0.66001,-1.646205 0.24593,-2.314062 z"
       id="path25"
       sodipodi:nodetypes="ccc" />
    <path
       style="display:inline;fill:#3c3c3c;fill-opacity:1"
       d="m 42.24,108.68687 c 3.559184,0.22767 1.570586,5.14234 2.52,7.4 0.293421,2.14798 2.250109,3.87829 4.2,3.8 -2.681022,2.23911 -2.476479,5.04172 -2.32625,8.585 -0.956419,-0.71102 -2.339821,-1.59441 -3.8475,-0.99875 -1.728604,0.19028 -3.228795,1.84324 -3.78625,3.33375 -0.745034,-2.93113 -3.710041,-5.58195 -2.04,-8.84 1.258652,-2.17755 2.228591,-4.52798 1.76,-7.2 0.02229,-2.3917 0.929495,-5.35348 3.52,-6.08 z m -1.76,15.2 c 2.64933,-0.53943 0.346032,-5.4999 -1.4,-2.68 -0.630335,1.22597 -0.01493,2.44099 1.4,2.68 z"
       id="path37"
       sodipodi:nodetypes="cccccccccccc" />
    <path
       style="display:inline;fill:#3c3c3c;fill-opacity:1"
       d="m 93.44,108.36687 c 2.037145,-0.0847 4.010306,2.65075 4.64375,4.49563 0.568496,1.70646 -0.97077,4.91705 -2.985,3.17249 -2.067502,-1.55432 -3.254364,-3.68108 -3.044375,-6.45374 0.234985,-0.5747 1.096771,-0.82068 1.385625,-1.21438 z"
       id="path36"
       sodipodi:nodetypes="ccccc" />
    <path
       style="display:inline;fill:#3c3c3c;fill-opacity:1"
       d="m 106.41188,76.109367 c 1.4174,0.755417 2.81691,1.882518 4.44062,2.56 1.79672,0.84879 5.64723,2.870286 2.69625,5.389375 -1.65681,0.503544 -3.0667,-0.273639 -4.83375,-1.705 -1.29743,-1.721141 -3.41205,-4.090333 -2.30312,-6.244375 z"
       id="path30"
       sodipodi:nodetypes="ccccc" />
    <path
       style="display:inline;fill:#3c3c3c;fill-opacity:1"
       d="m 138.57146,73.178323 c 1.48523,-0.09392 3.16188,1.050812 2.54281,2.587418 -1.26811,1.407899 -4.22397,-1.009462 -3.54169,-2.041126 0.399,0.172337 0.73784,-0.379428 0.99888,-0.546292 z"
       id="path29"
       sodipodi:nodetypes="cccc" />
    <path
       style="display:inline;fill:#3c3c3c;fill-opacity:1"
       d="m 51.2,146.76687 c 2.143922,-0.38041 2.190785,2.76459 2.755,4.16 0.276404,2.55866 1.421446,5.9089 -0.09125,8.1125 -0.65345,-0.15448 -3.117225,0.2091 -3.26375,-1.7525 -0.0809,-2.12514 0.291714,-5.30827 -0.2625,-6.68312 -0.104208,-1.31947 0.306021,-2.64531 0.8625,-3.83688 z"
       id="path46"
       sodipodi:nodetypes="cccccc" />
    <path
       style="display:inline;fill:#3c3c3c;fill-opacity:1"
       d="m 66.493709,146.92563 c -0.513334,-1.48742 0.207956,-3.26283 0.647378,-3.32027 1.739429,-0.0492 3.707248,5.6416 2.395068,7.95701 -1.882938,-0.21468 -2.280854,-1.6301 -3.042446,-4.63674 z"
       id="path45"
       sodipodi:nodetypes="cccc" />
    <path
       style="display:inline;fill:#3c3c3c;fill-opacity:1"
       d="m 37.17063,142.04874 c -1.073327,3.68543 -1.147793,6.41532 -0.530625,11.59813 0.304829,3.38838 1.116774,6.48098 1.02625,10.03312 -0.50241,2.35948 -1.133663,4.51692 -1.69375,6.8525 -0.761112,4.19062 -0.179876,8.68255 -0.835,12.995 -0.621492,1.40787 -0.534362,3.15525 -1.939375,4.55438 -1.600126,-0.15838 -2.686728,-3.97051 -0.678125,-2.155 2.798481,-0.30715 0.514372,-3.38174 0.44,-4.92 0.487163,-4.30809 1.613049,-8.47177 2.72,-12.64 0.574937,-2.35083 0.05931,-6.59228 -1.46625,-7.52313 -0.597199,-0.52307 -1.901912,-2.41193 -3.33375,-1.11687 -1.254068,0.66626 -2.813165,2.2379 -3.68,0.16 -1.003421,-1.09758 -0.154913,-4.43308 0.32,-1.92 0.178964,1.79866 3.455188,1.57549 3.32,0.2 -2.409501,-1.91266 -0.403817,-5.53751 0.16,-7.92 1.761902,-3.91407 4.349574,-7.49862 5.6,-11.36 0.22516,-0.0803 0.347188,-0.29267 0.578584,-0.40029 0.231396,-0.10761 0.171318,2.80737 -0.008,3.56216 z"
       id="path44"
       sodipodi:nodetypes="cccccccccccccccccc" />
    <path
       style="display:inline;fill:#3c3c3c;fill-opacity:1"
       d="m 88.53875,127.42687 c 1.446734,0.19509 2.447802,1.73103 3.418125,2.99688 0.7035,1.37928 2.867875,3.74799 0.8625,4.8975 -1.765236,-0.0721 -2.923139,-1.15736 -3.42875,-3.25625 -1.757632,-2.97282 -1.719529,-3.88727 -0.851875,-4.63813 z"
       id="path42"
       sodipodi:nodetypes="ccccc" />
    <path
       style="display:inline;fill:#3c3c3c;fill-opacity:1"
       d="m 64.408388,113.14559 c 2.340913,-1.02328 3.798213,3.9443 1.572583,3.87806 -1.671821,-0.63751 -2.309771,-2.37313 -1.572583,-3.87806 z"
       id="path39"
       sodipodi:nodetypes="ccc" />
  </g>
  <g
     inkscape:groupmode="layer"
     id="layer4"
     inkscape:label="gray2"
     style="display:inline"
     inkscape:highlight-color="#7c7c7c"
     transform="translate(0,0.45534323)">
    <path
       style="display:inline;fill:#7c7c7c;fill-opacity:1"
       d="m 77.12,23.246867 c 2.666041,-0.696036 2.874639,4.379722 0,3.52 -1.647991,-0.492493 -1.400999,-2.916135 0,-3.52 z"
       id="path11"
       sodipodi:nodetypes="ccc" />
    <path
       style="display:inline;fill:#7c7c7c;fill-opacity:1"
       d="m 185.79317,41.172187 c -1.77832,-0.0353 -2.12389,0.07115 -2.02218,-0.371192 0.10721,-0.466268 0.032,-1.566071 -1.41557,-2.117196 -2.7438,-0.744253 -4.86347,0.195574 -7.88758,0.12 -0.0299,-0.658893 3.55969,-0.407678 4.25242,-1.750862 1.73475,-0.175505 4.08166,0.307689 6.36506,0.19561 2.58172,0.550833 3.04466,3.582592 0.70785,3.92364 z"
       id="path14"
       sodipodi:nodetypes="csccccc" />
    <path
       style="display:inline;fill:#7c7c7c;fill-opacity:1"
       d="M 3.1520971,68.766414 C 6.0437591,67.87557 5.976925,73.555424 2.7471383,72.450757 1.3082871,71.728336 1.642285,69.190686 3.1520971,68.766414 Z"
       id="path26"
       sodipodi:nodetypes="ccc" />
    <path
       style="display:inline;fill:#7c7c7c;fill-opacity:1"
       d="m 24.772583,169.53188 c 0.1755,0.11136 0.404045,0.13051 0.467089,0.53112 0.06478,0.41165 -0.08428,0.99599 -0.04773,1.67357 0.0713,1.32174 -0.08472,2.89036 -0.01824,4.1103 -0.242529,1.76798 -0.406817,3.9955 -2.872738,4.81831 -2.828155,-2.70649 0.230776,-6.6875 1.48532,-9.69217 0.16484,-0.95504 0.529872,-1.42652 0.986292,-1.44113 z"
       id="path50"
       sodipodi:nodetypes="csscccc" />
    <path
       style="display:inline;fill:#7c7c7c;fill-opacity:1"
       d="m 50.24,54.926867 c 3.03096,-1.042907 4.364899,3.934934 1.4,4.92 -2.834302,0.325438 -4.070027,-3.481826 -1.4,-4.92 z"
       id="path17"
       sodipodi:nodetypes="ccc" />
    <path
       style="display:inline;fill:#7c7c7c;fill-opacity:1"
       d="m 42.88,67.726867 c 2.407936,-1.25929 3.747465,3.602364 0.8,3.36 -1.86454,0.01113 -2.302361,-2.566041 -0.8,-3.36 z"
       id="path24"
       sodipodi:nodetypes="ccc" />
    <path
       style="display:inline;fill:#7c7c7c;fill-opacity:1"
       d="m 132.48,4.3668666 c 3.41567,-0.9700424 7.43377,1.5581005 6.24375,5.2250004 -1.00796,-1.3429765 -2.76207,-2.1105154 -4.73375,-2.0212504 -3.33182,0.038863 -5.05911,1.7015324 -7.12125,4.1400004 -1.66107,0.97718 -2.72703,2.270417 -4.14375,2.825 0.23437,-2.328565 4.02411,-6.6728472 7.23875,-9.1100004 1.63819,-0.889879 1.67705,-0.9214684 2.51625,-1.05875 z"
       id="path6"
       sodipodi:nodetypes="ccccccc" />
    <path
       style="display:inline;fill:#7c7c7c;fill-opacity:1"
       d="m 178.08375,16.159992 c 2.6814,-0.437124 4.21338,2.489053 1.0925,4.8625 -0.0708,-0.820285 -1.28753,-2.199009 -3.29625,-1.314375 -1.72748,0.541161 -3.28998,2.820577 -4.83187,2.020625 2.34782,-1.93355 4.26092,-4.281628 7.03562,-5.56875 z"
       id="path9"
       sodipodi:nodetypes="ccccc" />
    <path
       style="display:inline;fill:#7c7c7c;fill-opacity:1"
       d="m 120.64,35.726867 c 3.38933,-0.759786 4.24342,4.831984 0.83125,4.67875 -1.51067,0.198127 -3.16929,-1.584253 -2.11125,-3.39875 0.56217,-0.904336 0.75458,-0.899191 1.28,-1.28 z"
       id="path13"
       sodipodi:nodetypes="cccc" />
    <path
       style="display:inline;fill:#7c7c7c;fill-opacity:1"
       d="m 21.294471,2.2700899 c 3.740652,-0.550816 7.344819,2.5425019 9.635044,6.345165 2.274544,3.6181391 3.491958,7.8801961 5.327128,11.7138691 0.618039,1.291085 1.326519,2.619944 2.264822,3.741692 0.580871,0.694435 1.136026,1.26345 1.998535,1.856051 1.577236,1.460171 4.074992,2.075783 6.018576,1.50281 1.299625,-0.383132 2.241512,-1.358796 2.901424,-2.74281 0.687891,-1.264895 1.319918,-3.31344 1.2361,-4.657883 -0.115636,-1.854794 -0.36088,-3.07981 -0.307712,-5.017923 0.281603,-2.198981 1.340019,-5.0722381 4.191612,-4.724194 3.22507,1.376661 2.779395,4.78775 7.617903,6.848388 2.679262,0.882788 5.109845,-0.401461 6.790397,-2.439745 1.132691,-1.373801 1.852308,-3.150436 2.3517,-4.608643 2.698638,-5.0416854 5.414783,-7.5364753 11.08,-6.5200004 4.667791,2.4466479 5.406857,5.7813991 6.6,11.9600004 1.113464,2.427262 2.018706,1.144976 3.038058,0.958252 -0.008,-5.801894 3.05032,-10.6961815 7.237748,-8.8614757 2.652614,1.5971224 2.962354,5.3363117 2.615964,5.9733207 0.0453,2.076321 0.26921,6.130213 1.4142,8.213034 1.27606,2.321251 3.67826,2.554091 5.48452,1.361063 2.3758,-1.529184 4.18073,-5.14421 7.80951,-3.884194 1.2685,1.365734 1.18261,1.835568 0.4979,3.26435 -0.36536,1.608682 -1.4395,3.090468 -2.60358,2.926513 -0.8807,-0.124041 -1.89723,-0.402377 -3.06271,-0.283446 -2.00601,0.609445 -2.61049,0.81293 -3.86334,1.681437 -6.91128,0.991709 -9.580324,7.923204 -6.76827,9.171146 1.54685,0.208958 2.94171,0.07012 1.41258,1.667107 -2.432731,1.534308 -6.168704,0.143534 -5.286133,-2.892272 0.765684,-2.634892 2.365312,-6.054518 0.03355,-8.374835 -3.231229,-1.98352 -5.433112,2.780422 -8.8,1.76 -3.494226,-0.49575 -4.97568,-4.335017 -4.32,-7.52 0.09811,-3.335464 3.06586,-6.200494 1.930641,-9.6 -0.315191,-3.7420634 -2.837303,-6.3264929 -6.607573,-5.8570878 -4.466913,0.7137232 -5.344236,5.2053548 -7.250641,8.5938648 -1.231428,2.520385 -3.53987,4.303186 -6.312427,5.263223 -3.230853,0.987214 -7.147758,-0.67913 -8.419845,-3.641126 -1.018028,-1.683874 -1.444154,-3.291419 -3.425475,-3.690641 -1.710402,0.982429 -1.530223,1.991396 -2.08,3.447573 0.504054,4.542233 1.532048,10.731325 -2.59468,14.244194 -3.890622,2.525967 -8.32465,-0.736881 -10.96,-3.68 C 35.736742,22.74855 33.573568,19.39069 32.610641,15.673158 30.603916,11.121897 28.106041,6.215202 23.52,3.8868666 22.463168,3.2270612 20.322505,2.8496759 19.24,2.8068666 19.469129,2.5821282 20.968111,2.3765762 21.294471,2.2700899 Z M 91.93033,24.878479 c 2.759209,-1.961297 1.821947,-5.965338 2.46967,-8.991612 -0.511049,-2.982809 2.565345,-6.9938865 5.64,-4.68 0.84926,-0.941149 -1.382258,-3.1275033 -2.92,-2.8400004 -3.253382,0.3429217 -3.288759,4.3974074 -3.68,6.8800004 -0.228739,3.302043 -2.975605,8.639623 -2.2,9.56 z"
       id="path4"
       sodipodi:nodetypes="ccsscscscccsccccccscccscccccccccccccccccccccccccccc" />
    <path
       style="display:inline;fill:#7c7c7c;fill-opacity:1"
       d="m 9.7025,56.073117 c -0.2374271,-0.206604 2.483213,0.291646 3.2975,0.57375 3.444,0.316774 6.789717,2.449444 8.12,5.64 1.821972,3.987165 -0.582604,8.132302 -3.48,10.92 -1.643783,1.321714 -1.073209,4.50925 1.4,3 4.08957,-0.877405 7.303553,-5.764068 11.8,-4.12 3.23584,2.381982 -0.438659,6.733569 -3.44,7.04 -0.857792,0.523958 -3.558091,1.673648 -3.4,1.08 0.568729,-1.096635 0.508588,-2.109393 -0.177095,-2.624005 -1.03229,-0.774743 -1.978247,-0.712077 -4.245405,0.20713 -1.841349,0.724842 -5.125269,2.081059 -5.4975,-1.423125 0.360203,-1.515488 1.562011,-2.565975 2.617058,-3.765048 C 17.80357,71.344256 18.762708,69.935749 19.04,68.206867 19.668576,66.090077 19.546364,63.8 18.497135,61.970472 17.394578,60.047954 15.308431,58.629105 13.046875,57.934367 11.825429,57.479696 10.660276,56.957348 9.7025,56.073117 Z"
       id="path18"
       sodipodi:nodetypes="ccccccccsccscscc" />
    <path
       style="display:inline;fill:#7c7c7c;fill-opacity:1"
       d="m 69.12,28.366867 c 3.627977,-1.367348 6.308775,3.000996 4.8,6.08 -1.14843,2.44021 -3.730264,5.506723 -1.32,8.110312 2.351766,3.131072 8.023882,0.571194 7.72,-3.310312 -0.146828,-0.629686 -0.479946,-1.185394 -0.624154,-1.935623 -0.274895,-1.430123 -0.204473,-3.075061 1.181369,-3.734257 0.218538,-0.103951 0.491333,-0.118746 0.777824,-0.17278 1.178805,0.138891 2.241381,0.63657 2.91495,1.399249 0.350725,0.397124 0.669567,0.844613 0.883146,1.341057 0.313595,0.728918 0.438573,1.550604 0.418789,2.368554 -0.02813,1.163152 -0.434881,2.344232 -1.071924,3.2938 -0.984272,1.473461 -1.219971,3.166577 -0.717172,4.792882 0.423978,1.371358 1.358697,2.768638 2.957172,3.207118 3.661897,1.246692 5.838875,-2.410867 6.88,-5.28 0.573127,-2.126828 4.006345,-2.192555 3.84,0.32 1.170298,2.693079 4.35999,-0.692947 6.08,1.6 2.30805,3.194584 6.71271,1.093158 9.28,-0.64 1.06383,-0.753175 2.45992,-2.045591 1.765,-2.668125 3.34049,-1.108502 8.4094,-2.518513 10.3275,1.588125 1.00412,3.362175 -2.56563,4.712774 -5.3725,4.28 -3.68311,-1.165889 -8.29831,-1.751699 -9.50938,1.784375 -0.32182,2.878986 -2.89768,4.899995 -6.01062,4.135625 -3.34575,-1.835304 -0.46431,-4.91077 -6.451875,-4.491875 -1.464353,-1.035049 -4.462766,-1.318707 -5.5125,2.815625 -1.153908,2.851598 0.487375,4.331444 2.364375,6.15625 1.19946,1.544227 1.702064,2.836101 1.536088,4.142152 -0.173315,1.363789 -1.070638,2.724066 -2.423493,3.486425 -0.844052,0.475638 -1.926631,0.591794 -3.118119,0.785132 -3.752443,-0.161286 -4.145452,-3.674638 -6.419176,-5.456028 -1.769617,-1.716847 -4.728458,-0.985733 -5.387557,1.360382 -0.51579,2.105742 2.579514,5.607849 -0.833879,6.357743 -3.207798,-0.636446 -4.172856,-2.014844 -6.741364,0.926069 -2.162538,3.065964 -0.905985,7.514128 1.828125,9.415625 6.530674,2.689626 6.834791,10.579515 3.335,14.2525 -4.383343,1.480682 -4.380451,-1.55375 -4.175625,-4.87 0.572662,-3.092679 -0.840116,-7.964247 -4.503125,-7.563125 -2.892119,1.172032 -3.213432,4.066871 -5.205,5.986875 -1.813962,3.091383 -2.951112,7.384987 -6.876875,8.24125 -5.574561,1.424605 -9.635435,9.086003 -4.2775,13.893133 0.584031,1.08939 0.636757,1.24583 1.265294,2.42015 0.222758,0.41619 0.324577,1.09464 0.139846,1.5956 -0.787006,2.13424 -1.577711,4.13853 -4.38264,5.34612 -3.629183,-0.35564 -4.044947,-5.67857 -3.84375,-8.69062 -0.686938,-3.69072 -3.847652,-2.67882 -4.91625,-0.38938 -0.910356,1.43584 -1.261977,2.85517 -1.143443,4.20951 0.05427,0.62004 0.593441,2.84166 -1.416557,6.35049 -1.750224,3.21435 -0.62823,4.55638 1.075,7.75813 1.359271,2.67151 -0.106509,5.00488 -1.005625,9.23187 -1.365624,1.10598 0.139451,-2.54885 -0.429375,-3.59 -0.261192,-2.65408 -2.106334,-5.86921 -4.76,-6.36 2.767529,3.35664 2.739399,8.33795 0.96,12.16 -0.868627,1.93956 -0.625362,2.68495 1.4,1.48 1.658476,-1.17601 0.95402,0.0552 0.05063,1.44562 -2.301405,4.22911 -5.20496,8.09227 -4.816875,13.15938 0.287159,0.66116 0.320777,0.83898 1.07,1.78937 -0.07099,0.44715 -0.352841,0.8009 -1.245888,0.88111 -0.547407,0.0492 -1.420706,-0.20914 -1.656954,-0.83724 -0.532975,-1.41701 -0.777268,-1.63146 -0.187158,-5.17387 0.819098,-2.98157 2.324876,-5.54248 3.468794,-8.39233 0.7272,-1.81168 1.273918,-3.77138 1.480581,-5.99892 0.599264,-5.44214 0.241296,-9.10842 -4.2275,-9.20687 -4.234224,0.76578 -4.646677,4.87652 -5.75625,9.19812 -1.228586,4.16339 -2.220389,7.69438 -5.8325,10.38375 -0.742417,0.55277 -2.098648,0.68636 -3.291023,0.3414 -1.488353,-0.43058 -2.772158,-1.92934 -2.894282,-2.43415 0.326711,-0.18765 1.733273,0.72838 3.111168,0.7635 5.929636,-2.22531 7.504036,-9.20754 9.047262,-14.47887 0.471257,-3.59182 4.321803,-8.13312 8.32,-6.08 2.673399,1.81061 5.629687,-1.22329 4.32,-4 -1.052388,-1.47472 -3.464574,-2.7589 -2.12,-5 1.526263,-3.06797 4.713068,-6.95752 1.48,-10.04 -2.236021,-4.40061 -1.169495,-9.988921 2.04,-13.640003 1.018862,-1.432544 3.40655,-3.710429 5.12,-2.16 0.101928,1.955173 -1.16192,4.755167 1.48,5.56 4.271187,-0.276408 5.34546,-6.252511 3.2,-9.28 -1.92562,-2.851688 -1.707215,-7.626358 2.08,-8.8 3.132063,-0.914933 7.71812,-0.188957 9,-4.12 1.629146,-3.969428 -2.908873,-7.313686 -6.6,-6.6 -3.432931,0.02281 -2.653944,-4.398023 0.36,-4.44 2.54713,-0.235728 4.694882,-2.205554 4,-4.96 0.479249,-2.136766 2.163464,-1.687545 3.64,-1.16 3.148298,-0.259159 5.197793,-4.486895 3.48,-7 -1.398219,-0.0132 -4.299347,-1.510915 -2.04,-2.76 1.667187,-0.236638 2.721698,-2.995696 0.16,-2.4 -3.695639,-0.321247 -3.621456,-5.907479 -0.16,-6.56 2.883112,-0.593367 -0.738714,-2.617908 -0.64,-4.16 -0.382103,-2.907501 2.864929,-3.990732 5.12,-3.2 1.434955,-1.328985 2.351033,-3.244129 4.16,-4.16 z m -0.16,22.24 c 3.69628,-0.342801 1.785804,-7.179 -1.32,-4.84 -1.870947,1.290568 -1.243392,4.847536 1.32,4.84 z m 45.56,-7.36 c 0.49178,0 0.0479,0 0,0 z"
       id="path12"
       sodipodi:nodetypes="ccccsscssscscccccccccccccssccccccccccccsscccsccccccccccsscscccsscccccccccccccccccccccccccccccc" />
    <path
       style="display:inline;fill:#7c7c7c;fill-opacity:1"
       d="m 37.76,71.566867 c 3.65317,-1.220744 4.79017,5.139674 1.28,5.76 -3.465227,1.087776 -4.474097,-4.926762 -1.28,-5.76 z"
       id="path27" />
    <path
       style="display:inline;fill:#7c7c7c;fill-opacity:1"
       d="m 63.180625,92.764992 c 2.697317,0.01611 2.229107,3.961253 0.075,4.334375 -2.320101,-0.608853 -2.29479,-3.533846 -0.075,-4.334375 z"
       id="path31"
       sodipodi:nodetypes="ccc" />
    <path
       style="display:inline;fill:#7c7c7c;fill-opacity:1"
       d="m 29.44,95.246867 c 3.384076,-1.51717 5.498395,4.013876 2.12,5.320003 -2.905872,1.53668 -5.437766,-2.826233 -2.8,-4.720003 0.0031,-0.422246 0.429938,-0.410532 0.68,-0.6 z"
       id="path33" />
    <path
       style="display:inline;fill:#7c7c7c;fill-opacity:1"
       d="m 12.126854,107.19776 c 3.576649,-0.13986 0.68508,6.09294 -1.577903,4.4796 -1.1871527,-1.25792 -0.165233,-3.75998 1.577903,-4.4796 z"
       id="path35"
       sodipodi:nodetypes="ccc" />
    <path
       style="display:inline;fill:#7c7c7c;fill-opacity:1"
       d="m 39.923068,120.52687 c 2.088653,-0.51883 1.888108,3.73338 0.46066,3.16082 -1.230944,-0.15344 -1.536662,-1.15407 -1.332651,-1.9615 0.141113,-0.55848 0.595248,-0.95539 0.871991,-1.19932 z"
       id="path40"
       sodipodi:nodetypes="ccsc" />
    <path
       style="display:inline;fill:#7c7c7c;fill-opacity:1"
       d="m 50.163125,150.84999 c 0.714911,1.08594 0.17243,4.70129 0.37263,6.59941 0.05605,0.53144 0.327821,0.82183 0.523421,1.01666 0.262825,0.26179 0.495323,0.30419 1.229574,0.57394 0.92562,0.0339 0.53858,0.001 1.568909,0.0936 0.218647,0.0196 0.137369,0.0532 0.09421,1.06353 -0.01639,0.38367 -0.216857,0.91139 -0.460759,1.2154 -0.28074,0.34993 -0.669789,0.439 -1.741732,0.25873 -3.528912,-1.24569 -2.287758,-7.09938 -1.94625,-9.13688 0.21442,-1.09201 0.175704,-1.01905 0.36,-1.68438 z"
       id="path47"
       sodipodi:nodetypes="csscsssccc" />
    <path
       style="display:inline;fill:#7c7c7c;fill-opacity:1"
       d="m 35.84,166.28687 c -0.0514,1.52767 -0.51466,2.99395 -0.897246,4.44667 -0.491513,1.86634 -1.050725,3.71031 -1.292129,5.63333 -0.419455,1.50983 -0.749836,4.02806 -0.778221,4.77044 -0.01238,0.32373 0.517071,1.78209 0.750721,2.64018 0.470112,0.8859 0.07266,1.74048 -0.512149,1.96152 -0.295658,0.11174 -0.273886,0.20415 -0.574727,0.0294 -1.048456,-0.60902 -1.215094,-0.40205 -1.418124,-2.24842 0.06664,-1.89707 0.35494,-3.45541 0.644994,-4.86255 0.290055,-1.40714 0.89436,-3.17872 1.108624,-4.36164 0.428528,-2.36584 0.625017,-3.93954 0.548882,-6.72143 -0.22754,-0.88726 -0.320488,-1.54924 -0.08024,-2.34566 0.331196,-1.09792 0.809831,-2.18887 0.789303,-2.93325 -0.164662,-0.53984 -0.225085,-0.99963 0.359906,-1.02691 0.581086,-0.0507 1.479963,3.32173 1.350411,5.01832 z"
       id="path48"
       sodipodi:nodetypes="cscscsscsscscccc" />
    <path
       style="display:inline;fill:#7c7c7c;fill-opacity:1"
       d="m 19.84,93.006867 c 3.487367,-0.19308 2.85347,4.681374 1.64,6.760003 -0.5981,1.21895 -0.764609,4.25658 -1,4.6 -0.329432,-0.81112 -0.269538,-1.97774 -0.143729,-3.05253 0.0877,-0.74918 -0.157003,-1.401913 -0.546932,-2.013275 -0.360521,-0.565256 -0.833967,-1.10156 -1.549339,-1.494198 -0.795719,-0.545444 -1.975259,-0.672484 -2.884222,-0.416278 -0.700437,0.197429 -1.132687,0.572783 -1.792897,0.855794 -0.579517,0.24842 -1.261023,0.280289 -1.775671,0.119114 -0.553183,-0.173243 -0.938749,-0.239408 -1.370433,-0.994436 0.413779,0.02756 3.142977,-0.329968 4.143223,-1.324194 1.794116,-0.937279 3.432315,-2.317944 5.28,-3.04 z"
       id="path32"
       sodipodi:nodetypes="cccsscsssccc" />
  </g>
  <g
     inkscape:groupmode="layer"
     id="layer5"
     inkscape:label="gray3"
     style="display:inline"
     inkscape:highlight-color="#adadad"
     transform="translate(0,0.45468879)">
    <path
       style="fill:#adadad;fill-opacity:1"
       d="m 96.751301,8.5047695 c 1.966834,-0.1317424 3.705509,1.4086603 3.263529,2.5032235 -2.233047,-1.5249492 -4.191382,-0.513241 -5.599995,2.665165 -0.236533,1.033618 -0.21318,2.190572 -0.309089,3.396444 -0.253978,3.193288 -0.03889,6.2432 -2.222678,7.610003 -0.466407,-0.07778 -0.762591,-0.348561 -0.448893,-1.679806 1.149543,-2.856856 1.804958,-5.320268 2.13765,-7.433016 0.302286,-1.919655 0.391841,-3.560349 0.916563,-5.142013 0.414335,-0.7380271 1.311628,-1.7792968 2.262913,-1.9200005 z"
       id="path8"
       sodipodi:nodetypes="cccsccscc" />
    <path
       style="display:inline;fill:#adadad;fill-opacity:1"
       d="m 18.40532,3.2415462 c 0.993103,-0.6185489 3.95905,0.278944 5.627229,1.110962 3.072314,1.8973305 4.95715,4.6569844 6.716543,7.7562168 1.098072,1.934291 1.829062,4.169025 2.556384,6.212822 0.417757,1.492244 1.333806,2.776754 2.222813,4.111558 1.329828,1.996678 2.845272,3.94181 4.517031,5.546345 2.753991,2.23572 7.409851,3.938053 10.145165,0.68 3.072158,-4.208935 2.140218,-8.469894 1.753554,-13.216272 0.435913,-2.139076 1.00975,-3.795588 2.615961,-3.236311 0.542336,0.250566 1.179604,1.027085 1.842456,2.172192 0.322476,0.557092 0.836546,1.791771 0.992113,1.961018 2.391767,2.602081 3.591885,3.002387 7.132072,3.171955 2.076968,-0.322946 5.780576,-2.113508 7.503534,-5.39468 2.212547,-3.260401 1.870074,-6.8671713 6.314175,-8.5245048 3.071265,-0.6756805 5.926998,0.499736 6.792737,3.423534 1.157963,3.3047468 0.693867,5.7038598 -0.932893,8.7119228 -0.507655,1.876489 -1.041079,4.771711 -0.375719,6.95241 0.506158,1.658918 1.798028,2.890322 3.465234,3.454541 3.037492,1.238628 4.912073,-0.907777 7.68532,-2.102097 3.732551,-0.07112 3.178665,4.553736 2.505165,6.885321 -2.198162,3.544796 -0.132875,6.456867 4.090326,5.281941 1.85022,-0.833373 1.14583,-1.563882 1.86241,-2.053708 1.90434,-1.491886 3.11131,-4.405895 5.90936,-3.603068 2.01506,-1.370644 3.94461,-4.567396 6.79161,-2.697903 4.34742,2.610764 0.21904,9.191779 -3.75693,8.766446 -2.25233,-0.55068 -6.24511,-2.282201 -7.50936,0.733709 -0.8255,3.237319 1.62284,6.50325 4.86016,5.677748 1.77856,0.05772 3.03738,-1.077135 5.12306,-1.683068 0.47452,1.608152 -5.22237,5.205982 -8.93401,4.502097 -0.77201,-0.419647 -1.50145,-1.323509 -2.29754,-1.876102 -0.58642,-0.407043 -1.28986,-0.552739 -1.65912,-0.536169 -0.75822,0.03402 -3.385772,1.213246 -4.011111,-0.536778 0.197552,-0.871308 -0.799444,-3.283494 -3.559185,-1.514174 -0.808036,1.00561 -0.918565,1.998403 -1.563988,3.187024 -0.975051,1.795671 -2.57585,3.61326 -4.923585,3.223616 -2.240063,-0.198684 -3.517017,-1.794413 -3.862867,-3.74613 -0.229881,-1.297274 -0.159406,-2.813498 0.716576,-3.957093 0.359901,-0.622533 0.779751,-1.310041 0.988807,-2.046701 0.252961,-0.89137 0.248572,-1.844447 0.119627,-2.70871 C 85.599241,35.527173 84.366617,33.99335 82.36,33.366867 c -0.889894,-0.0881 -1.668326,0.04585 -2.104399,0.513392 -1.014744,1.087981 -0.981936,3.463352 -0.156572,4.792899 0.363382,2.129506 -0.842392,3.8195 -2.491995,4.627691 -1.498348,0.734086 -3.362865,0.759997 -4.750257,-0.640273 -1.636751,-1.828166 -0.983757,-3.981773 -0.03477,-5.875654 0.374573,-0.747529 0.627368,-1.398629 1.057992,-2.058055 0.561835,-1.182262 0.869122,-2.190263 0.463809,-3.386966 -0.317411,-0.93717 -0.853979,-2.09271 -1.707413,-2.705934 -0.890587,-0.639921 -2.1164,-0.710905 -3.316396,-0.3871 -1.147541,0.359793 -2.070852,1.330668 -2.811163,2.304288 -0.919403,1.209153 -0.613869,0.783612 -1.563167,1.771518 -1.177586,-0.190548 -3.064116,-0.299417 -3.887109,0.433998 -0.582968,0.519514 -1.234106,1.324854 -1.348343,2.10681 -0.197686,1.353172 0.462806,2.370796 1.40252,3.50758 0.290342,0.389593 0.515057,0.821137 0.04912,1.112929 -0.37295,0.233562 -1.129062,0.313099 -1.69363,0.597009 -0.696395,0.350203 -1.071535,0.898026 -1.489202,1.663771 -0.776444,1.290538 -0.150507,3.046503 0.712406,3.983759 0.837741,0.909915 1.860223,1.044878 3.145497,0.878338 0.59983,1.066369 -0.736101,1.97526 -1.685052,2.187398 -0.914444,0.204424 -1.024927,1.380499 0.32812,2.292602 0.915844,0.450509 1.489416,0.38946 1.946403,0.825228 0.56273,0.536602 0.703446,1.587669 0.43682,2.672675 -0.22399,2.337664 -2.653085,3.959022 -3.670799,3.816587 -0.63243,-0.08851 -1.47445,-0.34195 -2.352424,-0.39449 -0.590209,0.268056 -1.238942,0.584613 -1.448167,1.092989 -0.731641,1.777737 1.210955,2.428733 -2.271833,5.107011 -1.290396,0.153673 -2.604534,0.37963 -3.423091,0.892471 -1.279812,0.801828 -1.571599,2.145357 -0.382229,3.785277 0.841892,0.421902 1.790932,0.339825 2.770334,0.414824 2.066096,0.158215 2.622176,0.130426 5.194986,2.587428 1.70932,3.255691 -0.938502,7.100556 -4.910485,7.227417 -3.231049,-0.209053 -7.319802,1.049555 -7.128389,5.848389 0.07642,2.073932 0.94093,3.32368 1.839346,5.158251 0.580035,1.184433 0.489453,3.240924 -4.72e-4,4.845943 -0.852843,2.090827 -4.276385,4.314564 -5.259029,1.195806 -0.0068,-0.983536 0.579249,-2.81704 0.231919,-3.780301 -0.228143,-0.632719 -1.511936,-0.710609 -2.725317,-0.389214 -1.612213,0.91421 -2.74575,2.152106 -3.724044,3.683881 -1.796991,2.81366 -2.650503,6.461501 -2.020306,9.804511 0.36615,1.99716 0.830989,2.59213 1.850506,3.8829 0.611334,0.77399 0.64377,1.51819 0.08208,4.28355 -0.408905,0.98823 -1.243875,2.43629 -1.914989,3.64004 -0.989641,1.77509 -1.217513,2.11503 -0.430992,3.75495 0.453941,0.55632 1.19695,1.17552 1.693562,1.82881 0.744438,0.97931 0.846432,2.05794 0.404386,3.05689 -0.60366,1.36417 -2.454803,2.18378 -4.057132,1.23511 -3.766507,-2.30594 -7.649833,1.6741 -8.441126,5.20839 -1.494951,5.26041 -2.636754,11.13723 -7.111923,14.14967 -0.416736,0.47043 -1.483504,1.04206 -1.937375,1.1247 -0.549464,0.10005 -3.082242,-0.82044 -3.346508,-0.94792 -1.1114522,-4.21563 0.439154,-6.52919 4.346291,-9.85177 1.409867,-1.18963 3.240784,-2.7753 3.94035,-4.55156 0.516125,-1.31048 0.478534,-2.80107 -0.567767,-4.19473 -1.191784,-3.47336 0.416925,-3.96413 3.253708,-5.68113 2.493112,-1.19157 5.000729,-3.64765 6.270205,-6.20394 1.343758,-2.70586 1.622102,-5.46755 0.03077,-8.24025 -0.594383,-1.12755 -2.001923,-1.84918 -3.296174,-1.68415 -1.726933,0.2202 -2.961349,0.91489 -3.7827,-1.83585 0.398063,-1.09048 0.495645,-3.27654 0.843068,-3.98598 0.640096,-1.531268 2.658837,-5.909073 -0.340971,-7.589675 -2.355202,-0.61261 -4.92456,1.965641 -6.510485,3.034679 -1.169946,0.903173 -3.094932,1.500721 -4.268544,1.190486 -0.6909324,-0.678306 -0.3715167,-2.8128 0.466507,-4.78074 1.036493,-2.434007 2.878032,-4.812228 4.722037,-6.237163 1.901749,-1.618462 4.884638,-2.872388 6.956786,-4.261804 0.676108,-0.453344 1.057812,-0.843058 1.533214,-1.311419 1.812601,-0.303258 1.928219,-0.502079 3.56433,-1.204991 4.421594,-1.497534 5.650507,-4.811417 4.118008,-6.64127 -0.345447,-0.412475 -0.831206,-0.665647 -1.452338,-0.900516 -1.956667,-0.304509 -3.819414,0.291327 -5.436696,1.238404 -1.88359,1.103026 -3.578627,2.459653 -5.544363,3.030902 -0.710401,0.206444 -1.279379,0.359291 -2.082164,0.264403 -0.689969,-1.689791 0.577967,-2.839475 1.726575,-4.108985 0.704359,-0.778499 1.549116,-1.883658 1.926007,-2.743598 0.906764,-1.354209 1.318629,-2.876331 1.255584,-4.471146 C 21.954572,62.690704 20.80114,60.348425 19.038877,58.927993 16.608193,56.595239 12.406327,56.094605 9.7972651,55.707508 6.193866,52.944909 6.3492358,48.584747 8.1946826,45.300576 8.9434761,44.133979 10.145813,43.412159 11.201727,42.975347 14.436173,41.637319 18.541719,42.840953 22.003071,42.25945 27.344707,41.758874 31.010764,35.905495 30.240003,30.766867 29.965838,28.625072 29.212767,26.714309 27.972056,25.091727 25.889405,22.368069 22.713898,20.295752 20.17678,18.132187 17.467716,15.799923 14.737974,12.560795 14.81151,9.0246364 14.830274,8.1223266 15.040191,7.2213356 15.492586,6.2868666 16.124467,4.891469 18.40532,3.2415462 18.40532,3.2415462 Z M 31.520816,100.78058 c 3.477561,-0.53103 2.110947,-6.538764 -1.47969,-6.003072 -2.924233,0.289437 -3.688717,5.576222 -0.364194,6.091462 l 0.832766,0.1879 z M 38.56,77.707838 c 4.735019,-0.793818 3.053571,-7.53844 -0.910485,-6.317748 -2.956018,0.794693 -2.288441,6.51062 0.910485,6.317748 z m 5.164194,-6.355806 c 3.103819,0.226778 1.919361,-5.499147 -1.176777,-3.527262 -1.252057,0.921733 -0.595161,3.535148 1.176777,3.527262 z M 51.51468,60.107838 c 3.980479,-1.076258 1.566121,-6.838818 -1.567263,-5.197748 -2.438731,1.458858 -1.462481,5.124974 1.567263,5.197748 z M 77.6,27.037352 c 3.421253,-0.519682 1.494272,-4.994775 -0.986291,-3.723068 -1.137153,1.162762 -1.154437,3.71549 0.986291,3.723068 z"
       id="path5"
       sodipodi:nodetypes="ccscsccccsscccccsccccccccccccssccscscsscscscscsscscsscsscscscscscscscscccsccscscscscsscccsccsccscscccccscsccscsscscscccsccscsccccccccccccccccccc" />
    <path
       style="fill:#adadad;fill-opacity:1"
       d="m 36.789359,135.64054 c -0.739165,5.59462 -1.279972,5.65887 -3.466291,6.54536 -1.583429,0.57573 0.394703,-2.61549 0.542097,-3.51887 0.930332,-3.48641 0.946275,-7.05667 -1.40532,-10.15806 1.796747,0.3536 4.150226,3.48107 4.329514,7.13157 z"
       id="path43"
       sodipodi:nodetypes="ccccc" />
    <path
       style="fill:#adadad;fill-opacity:1"
       d="m 68.558125,45.483117 c 3.136978,-0.391877 3.001453,5.837776 -0.2575,4.854375 -2.389119,-0.808053 -2.028055,-4.277869 0.2575,-4.854375 z"
       id="path16"
       sodipodi:nodetypes="ccc" />
  </g>
</svg>
